<?xml version="1.0" encoding="utf-8"?>
<!-- Generator: Adobe Illustrator 26.0.1, SVG Export Plug-In . SVG Version: 6.00 Build 0)  -->
<svg version="1.1" id="Layer_1" xmlns="http://www.w3.org/2000/svg" xmlns:xlink="http://www.w3.org/1999/xlink" x="0px" y="0px"
	 viewBox="0 0 612 792" style="enable-background:new 0 0 612 792;" xml:space="preserve">
<style type="text/css">
	.st0{clip-path:url(#SVGID_00000054258318111546137250000015165828274732467643_);}
	.st1{fill:url(#SVGID_00000103235573706017264740000002978043026098155695_);}
	.st2{fill:url(#SVGID_00000176030724120896035210000001512413178038994337_);}
	.st3{fill:url(#SVGID_00000001624142424810098870000000429778331602558901_);}
	.st4{fill:url(#SVGID_00000057114862625534131420000001773178759749933716_);}
	.st5{fill:url(#SVGID_00000109009147562091743510000011073867208404347790_);}
	.st6{fill:url(#SVGID_00000182506601080100675280000018013566872613284259_);}
	.st7{fill:url(#SVGID_00000003082737750065196540000011978517672899401379_);}
	.st8{fill:url(#SVGID_00000067955274815183858070000010757512870857873571_);}
	.st9{fill:url(#SVGID_00000158733581424921832880000000007687860724219567_);}
	.st10{fill:url(#SVGID_00000042696083509757125360000008761598740395627675_);}
	.st11{fill:url(#SVGID_00000026161692616939775150000001227801187477639555_);}
	.st12{fill:url(#SVGID_00000108995488128399255590000009347470665709267115_);}
	.st13{fill:url(#SVGID_00000118390028621057829300000005718779170453757319_);}
	.st14{fill:url(#SVGID_00000052099643241862172100000007497079293793126038_);}
	.st15{fill:url(#SVGID_00000165225232546289043900000017333079322537750972_);}
	.st16{fill:url(#SVGID_00000079447925678133655760000000047636636501400480_);}
	.st17{fill:url(#SVGID_00000029043338692785269600000008631279692770682752_);}
	.st18{fill:url(#SVGID_00000074430046306912195380000013523941526580429468_);}
	.st19{fill:url(#SVGID_00000114757112114706372130000000844410905803418536_);}
	.st20{fill:url(#SVGID_00000089555763439474551420000008331793487172047275_);}
	.st21{fill:url(#SVGID_00000047771255561264708310000003566552398979938451_);}
	.st22{fill:url(#SVGID_00000119819702022101695380000007556624930853229747_);}
	.st23{fill:url(#SVGID_00000119798725278277587410000009781150377262206625_);}
	.st24{fill:url(#SVGID_00000052062292068988985400000013328413771123911842_);}
	.st25{fill:url(#SVGID_00000061439658287661747690000001110022834536304820_);}
	.st26{fill:url(#SVGID_00000015314677716773622670000005661851704142520229_);}
	.st27{fill:url(#SVGID_00000021095796960008044500000008544708159497030589_);}
	.st28{fill:url(#SVGID_00000129918038342062936100000017350484442305018549_);}
	.st29{fill:url(#SVGID_00000065043096187449278410000008407490808989752997_);}
	.st30{fill:url(#SVGID_00000088101309293260266180000013832268113656601530_);}
	.st31{fill:url(#SVGID_00000086649968144748611200000007520450854464733622_);}
	.st32{fill:url(#SVGID_00000160171528555695381290000002003052238404717722_);}
	.st33{fill:url(#SVGID_00000107568971918401847900000002909774126279974585_);}
	.st34{fill:url(#SVGID_00000040556487763181445560000017299782422708512904_);}
	.st35{fill:url(#SVGID_00000062191843016574180770000004124530973007889041_);}
	.st36{fill:url(#SVGID_00000115483906323750809400000007861864101594249348_);}
	.st37{fill:url(#SVGID_00000030478664358358910800000017706072793187572118_);}
	.st38{fill:#D25B5C;}
	.st39{fill:#3C3C3D;}
	.st40{fill:#F7E3BB;}
	.st41{fill:url(#XMLID_00000085939903746950735030000018025929676656277902_);}
	.st42{fill:url(#XMLID_00000072273715652902611480000010042669435860476302_);}
	.st43{fill:url(#XMLID_00000032649670951500126520000000224375539688716220_);}
	.st44{fill:#4A5DA5;}
	.st45{fill:url(#XMLID_00000019677626264780609400000018354114201179485370_);}
	.st46{fill:url(#XMLID_00000178188437629978032160000007663307801795865531_);}
	.st47{fill:url(#XMLID_00000166633962906973605960000005425912262088046216_);}
	.st48{fill:url(#XMLID_00000092414426234356147020000003126454818256393385_);}
	.st49{fill:url(#XMLID_00000160159273597753764930000012238759155673981576_);}
	.st50{fill:url(#SVGID_00000140701428575082242730000014064118363654230403_);}
	.st51{fill:#92C9C2;}
	.st52{fill-rule:evenodd;clip-rule:evenodd;fill:url(#SVGID_00000023252579031311545870000011083156289498596505_);}
	.st53{fill:url(#SVGID_00000090988244889097234020000012567255064550360981_);}
	.st54{fill:url(#SVGID_00000036232718528286127790000007758941137533702798_);}
	.st55{fill:url(#XMLID_00000175307697829053277100000012622301873493054139_);}
	.st56{fill:url(#XMLID_00000062193292688733541630000008873553814269527950_);}
	.st57{fill:#3B3B65;}
	.st58{fill:url(#SVGID_00000068653361742717309630000015628052894922283442_);}
	.st59{fill:url(#SVGID_00000031889859045429026220000002448365631218558399_);}
	.st60{fill-rule:evenodd;clip-rule:evenodd;fill:url(#XMLID_00000135656107850220299200000017359376891105286837_);}
	.st61{fill:url(#SVGID_00000095304313353436005340000015857070168699816592_);}
	.st62{fill:url(#XMLID_00000163042537335995290890000002023200314197801907_);}
	.st63{fill:url(#XMLID_00000099643546085566069210000000359244050938603694_);}
	.st64{fill:url(#XMLID_00000075862593240753530300000006320740187566752949_);}
	.st65{fill:url(#SVGID_00000140708712848469707490000009464490513492151989_);}
	.st66{fill:url(#XMLID_00000152252620815454639630000009073261316120326568_);}
	.st67{fill:url(#XMLID_00000163755731629171324630000016270695924532922256_);}
</style>
<g>
	<defs>
		<rect id="SVGID_1_" y="373.05" width="612" height="418.95"/>
	</defs>
	<clipPath id="SVGID_00000106852540987278490450000003445105320988645006_">
		<use xlink:href="#SVGID_1_"  style="overflow:visible;"/>
	</clipPath>
	<g style="clip-path:url(#SVGID_00000106852540987278490450000003445105320988645006_);">
		<g id="XMLID_349_">
			
				<linearGradient id="SVGID_00000018932731083580505250000016469975075362227089_" gradientUnits="userSpaceOnUse" x1="534.0901" y1="1048.7834" x2="689.2777" y2="1048.7834" gradientTransform="matrix(0.9167 0.3995 -0.3995 0.9167 -32.2713 -481.7926)">
				<stop  offset="0" style="stop-color:#84A47F"/>
				<stop  offset="1" style="stop-color:#3B3B64"/>
			</linearGradient>
			<path style="fill:url(#SVGID_00000018932731083580505250000016469975075362227089_);" d="M42.15,684.25
				c6.41,0.92,12.64,3.27,18.55,5.83c17.64,7.65,34.42,18.66,48.19,32.09c6.48,6.31,12.49,13.41,16.56,21.55
				c1.76,3.53,3.15,7.27,3.85,11.16c0.35,1.91,1.73,16.29,4.17,17.4c8.28,3.74,20.44-2.35,29.5-2.99c3.83-0.27,7.87-0.61,11.01-2.81
				c7.12-4.99,5.22-17.95,2.96-25.07c-1.71-5.37-5.43-10.41-10.76-12.25c-4.69-1.61-10.09-0.63-14.54-2.81
				c-10.37-5.08-8.68-22.97-19.22-27.67c-6.05-2.69-13.25,0.51-19.66-1.14c-7.56-1.94-11.17-10.3-16.95-15.55
				C80.97,668.55,58.16,673.08,42.15,684.25z"/>
		</g>
		<g id="XMLID_124_">
			
				<linearGradient id="SVGID_00000029731058432504667050000010998713966439757451_" gradientUnits="userSpaceOnUse" x1="1743.7124" y1="940.4644" x2="1898.8982" y2="940.4644" gradientTransform="matrix(-0.3554 0.9347 -0.9347 -0.3554 2090.7058 -809.9717)">
				<stop  offset="0" style="stop-color:#84A47F"/>
				<stop  offset="1" style="stop-color:#3B3B64"/>
			</linearGradient>
			<path style="fill:url(#SVGID_00000029731058432504667050000010998713966439757451_);" d="M600.85,489.02
				c-0.61,6.45-2.66,12.78-4.94,18.81c-6.8,17.99-17,35.27-29.76,49.67c-6,6.77-12.8,13.11-20.74,17.57
				c-3.44,1.93-7.11,3.49-10.96,4.38c-1.89,0.44-16.19,2.51-17.18,5c-3.34,8.45,3.32,20.31,4.39,29.32
				c0.45,3.81,0.98,7.83,3.33,10.86c5.33,6.87,18.18,4.36,25.18,1.76c5.28-1.96,10.14-5.92,11.72-11.33
				c1.39-4.76,0.15-10.1,2.11-14.66c4.58-10.6,22.53-9.76,26.72-20.52c2.4-6.17-1.14-13.21,0.2-19.69
				c1.58-7.65,9.76-11.65,14.72-17.68C618.39,527.05,612.78,504.48,600.85,489.02z"/>
		</g>
		<g id="XMLID_289_">
			<g id="XMLID_123_">
				
					<linearGradient id="SVGID_00000096748616877585687620000016554150064522661048_" gradientUnits="userSpaceOnUse" x1="64.1765" y1="391.3963" x2="105.5713" y2="391.3963" gradientTransform="matrix(0.9002 -0.4355 0.4355 0.9002 -90.7879 334.9748)">
					<stop  offset="0" style="stop-color:#84A47F"/>
					<stop  offset="1" style="stop-color:#3B3B64"/>
				</linearGradient>
				<path style="fill:url(#SVGID_00000096748616877585687620000016554150064522661048_);" d="M207.9,728.29
					c2.96,7.61,4.22,31.33,2.01,51.78c3.08-1.07,6.14-2.2,9.21-3.3c-0.05-19.42-2.23-44.43-4.6-51.22
					c-6.03-17.25-15.75-33.62-30.11-44.92c-5.16-4.07-10.85-7.42-16.2-11.24c-31-22.1-49.64-60.5-47.82-98.53
					c0.46-9.54,2.08-19.29-0.49-28.49c-2.66-9.51-10.16-16.74-18.01-22.74l-1.04,1.69c-9.3,15.09-8.08,33.5,0.4,49.06
					c4.56,8.37,11.51,15.52,14.34,24.62c1.17,3.76,1.58,7.72,1.98,11.64c2.09,20.45,10.67,36.49,24.28,51.89
					C163.96,683.53,192.37,688.37,207.9,728.29z"/>
			</g>
			<g id="XMLID_122_">
				
					<linearGradient id="SVGID_00000023989015862628369570000000551731848433002642_" gradientUnits="userSpaceOnUse" x1="72.652" y1="323.7154" x2="112.3369" y2="323.7154" gradientTransform="matrix(0.9002 -0.4355 0.4355 0.9002 -90.7879 334.9748)">
					<stop  offset="0" style="stop-color:#84A47F"/>
					<stop  offset="1" style="stop-color:#3B3B64"/>
				</linearGradient>
				<path style="fill:url(#SVGID_00000023989015862628369570000000551731848433002642_);" d="M127.06,614.94
					c-0.12-5.12,8.69-13.3,10.5-15.84c7.86-11.04,8.2-29.74,3.67-42.51c-11.07,8.31-18.48,21.34-19.95,35.11l2.24,19.41
					L127.06,614.94z"/>
			</g>
			<g id="XMLID_121_">
				
					<linearGradient id="SVGID_00000066480169515614249140000006119986617869094802_" gradientUnits="userSpaceOnUse" x1="72.0718" y1="352.8067" x2="108.3654" y2="352.8067" gradientTransform="matrix(0.9002 -0.4355 0.4355 0.9002 -90.7879 334.9748)">
					<stop  offset="0" style="stop-color:#84A47F"/>
					<stop  offset="1" style="stop-color:#3B3B64"/>
				</linearGradient>
				<path style="fill:url(#SVGID_00000066480169515614249140000006119986617869094802_);" d="M134.14,630.11
					c6.79,0.14,10.11-2.72,13.96-7.47c3.95-4.88,5.37-11.31,6.18-17.53c0.45-3.5,0.76-7.01,0.9-10.54
					c-8.69,3.08-26.41,10.32-27.68,21.52l3.16,11.12C130.65,627.21,133.16,630.09,134.14,630.11z"/>
			</g>
			<g id="XMLID_120_">
				
					<linearGradient id="SVGID_00000003083499297577605860000011148615058808848542_" gradientUnits="userSpaceOnUse" x1="41.587" y1="330.7524" x2="69.702" y2="330.7524" gradientTransform="matrix(0.9002 -0.4355 0.4355 0.9002 -90.7879 334.9748)">
					<stop  offset="0" style="stop-color:#84A47F"/>
					<stop  offset="1" style="stop-color:#3B3B64"/>
				</linearGradient>
				<path style="fill:url(#SVGID_00000003083499297577605860000011148615058808848542_);" d="M117.43,605.61
					c-0.85-3.58-5.97-7.15-8.9-7.89c-13.81-3.47-22.64-1.88-25.7-0.18c2.95,10.66,14.26,18.15,17.03,20.11
					c5.67,4.02,14.38,4.91,20.46,3.5c0,0,0.39-6.49,0.4-6.82C120.73,614,117.43,605.61,117.43,605.61z"/>
			</g>
			<g id="XMLID_119_">
				
					<linearGradient id="SVGID_00000017516511436394098110000017642027045543584187_" gradientUnits="userSpaceOnUse" x1="29.1037" y1="358.276" x2="66.9833" y2="358.276" gradientTransform="matrix(0.9002 -0.4355 0.4355 0.9002 -90.7879 334.9748)">
					<stop  offset="0" style="stop-color:#84A47F"/>
					<stop  offset="1" style="stop-color:#3B3B64"/>
				</linearGradient>
				<path style="fill:url(#SVGID_00000017516511436394098110000017642027045543584187_);" d="M131.44,644.61
					c-8.89,7.74-29.89,2.09-37.31-4.94c-3.48-3.3-7.14-5.5-9.78-9.51c5.58-5.29,15.42-9.47,23.04-8.36
					c4.64,0.67,14.74,4.46,16.35,8.86c0,0,5.14,3.94,5.62,5.59C129.83,637.9,131.44,644.61,131.44,644.61z"/>
			</g>
			<g id="XMLID_118_">
				
					<linearGradient id="SVGID_00000086651312959286034150000007711166799656068489_" gradientUnits="userSpaceOnUse" x1="20.764" y1="402.3106" x2="88.806" y2="402.3106" gradientTransform="matrix(0.9002 -0.4355 0.4355 0.9002 -90.7879 334.9748)">
					<stop  offset="0" style="stop-color:#84A47F"/>
					<stop  offset="1" style="stop-color:#3B3B64"/>
				</linearGradient>
				<path style="fill:url(#SVGID_00000086651312959286034150000007711166799656068489_);" d="M137.4,653.27
					c-15.29-7.37-40.17-2.96-49.05,4.31c6.53,8.96,15.02,15.55,25.94,17.43c20.05,3.45,41.13-3.31,41.83-2.91
					c-12.32,2.08-33,9.82-40.47,23.13c23.22,12.35,50.54,5.07,61.34-7.67c0,0-0.54-4.62-1.09-5.2
					C175.35,681.8,137.4,653.27,137.4,653.27z"/>
			</g>
			<g id="XMLID_117_">
				
					<linearGradient id="SVGID_00000144328670479600318380000017110945201075187362_" gradientUnits="userSpaceOnUse" x1="31.7031" y1="451.0266" x2="98.5399" y2="451.0266" gradientTransform="matrix(0.9002 -0.4355 0.4355 0.9002 -90.7879 334.9748)">
					<stop  offset="0" style="stop-color:#84A47F"/>
					<stop  offset="1" style="stop-color:#3B3B64"/>
				</linearGradient>
				<path style="fill:url(#SVGID_00000144328670479600318380000017110945201075187362_);" d="M193.46,701.6
					c-6.4,20.52-25.45,26.89-37.28,26.56c-6.73-0.19-15.85-0.7-21.97-0.92c2.45-11.47,10.5-21.72,21.15-26.62
					c4.14-1.91,8.59-2.78,12.75-4.83c0,0,9.56-6.83,20.31-2.58C197.59,696.86,193.46,701.6,193.46,701.6z"/>
			</g>
			<g id="XMLID_116_">
				
					<linearGradient id="SVGID_00000181770152672005122530000012212445765153142950_" gradientUnits="userSpaceOnUse" x1="75.6578" y1="381.8181" x2="99.0769" y2="381.8181" gradientTransform="matrix(0.9002 -0.4355 0.4355 0.9002 -90.7879 334.9748)">
					<stop  offset="0" style="stop-color:#84A47F"/>
					<stop  offset="1" style="stop-color:#3B3B64"/>
				</linearGradient>
				<path style="fill:url(#SVGID_00000181770152672005122530000012212445765153142950_);" d="M158.35,661.49
					c-0.84-2.08,1.3-6.03,2.4-9c1.67-4.48,2.63-9.21,2.86-13.98c0.1-2.2,0.04-4.46-0.72-6.54c-1.01-2.77-3.16-4.94-5.25-7.01
					c-2.04-2.02-4.07-4.05-6.1-6.07c-8.04,5.62-11.16,16.48-8.41,25.89c0.09,0.29,5.92,8.3,6.69,9.77
					C150.58,656.01,158.84,662.69,158.35,661.49z"/>
			</g>
			<g id="XMLID_317_">
				
					<linearGradient id="SVGID_00000054950495382739820150000008837497072099637649_" gradientUnits="userSpaceOnUse" x1="87.4081" y1="406.3344" x2="107.38" y2="406.3344" gradientTransform="matrix(0.9002 -0.4355 0.4355 0.9002 -90.7879 334.9748)">
					<stop  offset="0" style="stop-color:#84A47F"/>
					<stop  offset="1" style="stop-color:#3B3B64"/>
				</linearGradient>
				<path style="fill:url(#SVGID_00000054950495382739820150000008837497072099637649_);" d="M182.71,679.52
					c1.3-1.18,3.94-6.36,4.11-7.37c0.95-5.49-0.14-10.08-2.5-15.08c-2.36-4.99-5.96-9.26-10.06-12.78
					c-2.85-2.44-5.98-4.59-8.31-7.59c-5.75,10.64-4.06,25.13,3.96,33.96l6.35,8.73L182.71,679.52z"/>
			</g>
			<g id="XMLID_313_">
				
					<linearGradient id="SVGID_00000134931591924370527420000006522931108447681685_" gradientUnits="userSpaceOnUse" x1="100.7287" y1="430.0319" x2="121.3241" y2="430.0319" gradientTransform="matrix(0.9002 -0.4355 0.4355 0.9002 -90.7879 334.9748)">
					<stop  offset="0" style="stop-color:#84A47F"/>
					<stop  offset="1" style="stop-color:#3B3B64"/>
				</linearGradient>
				<path style="fill:url(#SVGID_00000134931591924370527420000006522931108447681685_);" d="M201.5,699.3
					c0.04-4.25,2.17-7.56,3.79-11.49c4.09-9.89,0.74-21.79-6.41-29.75c-2.81-3.13-6.21-5.85-8.05-9.63
					c-3.44,3.69-3.78,9.23-3.72,14.27c0.13,10.35,1.83,20.76,8.66,28.54c0,0,0.41,6.29,0.9,6.55
					C197.16,698.06,201.5,699.3,201.5,699.3z"/>
			</g>
			<g id="XMLID_310_">
				
					<linearGradient id="SVGID_00000029013622830038160830000005186828764418890902_" gradientUnits="userSpaceOnUse" x1="102.2934" y1="460.1176" x2="126.763" y2="460.1176" gradientTransform="matrix(0.9002 -0.4355 0.4355 0.9002 -90.7879 334.9748)">
					<stop  offset="0" style="stop-color:#84A47F"/>
					<stop  offset="1" style="stop-color:#3B3B64"/>
				</linearGradient>
				<path style="fill:url(#SVGID_00000029013622830038160830000005186828764418890902_);" d="M214.27,726.43
					c1.71-3.23,4.19-5.98,6.04-9.13c3.6-6.11,4.66-13.58,3.38-20.56c-1.29-6.98-4.83-13.45-9.66-18.65
					c-1.54-1.66-3.26-3.26-4.09-5.37c-7.12,12.13-8.19,27.37-1.02,39.47c0,0,0.54,8.37,0.66,8.75
					C209.69,721.33,214.27,726.43,214.27,726.43z"/>
			</g>
			<g id="XMLID_302_">
				
					<linearGradient id="SVGID_00000081613004703157907480000008860891181762281888_" gradientUnits="userSpaceOnUse" x1="96.4639" y1="492.0108" x2="129.7773" y2="492.0108" gradientTransform="matrix(0.9002 -0.4355 0.4355 0.9002 -90.7879 334.9748)">
					<stop  offset="0" style="stop-color:#84A47F"/>
					<stop  offset="1" style="stop-color:#3B3B64"/>
				</linearGradient>
				<path style="fill:url(#SVGID_00000081613004703157907480000008860891181762281888_);" d="M218.67,751.53
					c5.04-1.98,10.07-4.79,12.86-9.43c2.02-3.37,2.66-7.4,2.79-11.33c0.2-5.61-0.55-11.26-2.19-16.64
					c-0.45-1.47-0.97-2.94-1.05-4.48c-0.08-1.53,0.36-3.18,1.53-4.18c-6.47,2-11.61,7.38-14.12,13.68
					c-2.5,6.3-1.18,13.21-0.93,19.98c0.03,0.74-1.66,8.31-1.66,8.31L218.67,751.53z"/>
			</g>
			<g id="XMLID_298_">
				
					<linearGradient id="SVGID_00000121237755760013639370000010413718935295270038_" gradientUnits="userSpaceOnUse" x1="43.578" y1="478.5343" x2="99.6913" y2="478.5343" gradientTransform="matrix(0.9002 -0.4355 0.4355 0.9002 -90.7879 334.9748)">
					<stop  offset="0" style="stop-color:#84A47F"/>
					<stop  offset="1" style="stop-color:#3B3B64"/>
				</linearGradient>
				<path style="fill:url(#SVGID_00000121237755760013639370000010413718935295270038_);" d="M208.47,729.92
					c-1.57,3.21-3.52,6.33-6.31,8.57c-1.44,1.15-3.06,2.04-4.68,2.92c-2.48,1.35-4.95,2.71-7.43,4.06c-2.03,1.11-4.1,2.23-6.36,2.69
					c-2.17,0.44-4.42,0.25-6.62-0.04c-7.99-1.06-15.81-3.47-23.01-7.09c7.73-2.44,13.83-8.26,19.8-13.75
					c5.97-5.48,12.48-11,20.42-12.59c2.32-0.47,4.76-0.57,7.04,0.07l1.15,0.65l6.13,9.51L208.47,729.92z"/>
			</g>
			<g id="XMLID_295_">
				
					<linearGradient id="SVGID_00000088101711324499703290000006257262544324486538_" gradientUnits="userSpaceOnUse" x1="55.7666" y1="502.319" x2="95.5823" y2="502.319" gradientTransform="matrix(0.9002 -0.4355 0.4355 0.9002 -90.7879 334.9748)">
					<stop  offset="0" style="stop-color:#84A47F"/>
					<stop  offset="1" style="stop-color:#3B3B64"/>
				</linearGradient>
				<path style="fill:url(#SVGID_00000088101711324499703290000006257262544324486538_);" d="M210.95,758.38
					c-5.28,3.8-12.28,4.58-18.68,3.42c-6.4-1.16-12.34-4.07-18.07-7.15c2.97,0.29,5.93-0.83,8.46-2.42
					c2.53-1.59,4.73-3.64,7.09-5.47c4.11-3.18,8.73-5.7,13.63-7.42c2.58-0.91,5.79-1.47,7.74,0.44c0,0,1.55,2.33,1.75,4.46
					c0.2,2.12,0.11,10.61,0.11,10.61L210.95,758.38z"/>
			</g>
			<g id="XMLID_290_">
				
					<linearGradient id="SVGID_00000024701116164040732990000017104334628416881855_" gradientUnits="userSpaceOnUse" x1="49.2461" y1="306.7607" x2="73.6779" y2="306.7607" gradientTransform="matrix(0.9002 -0.4355 0.4355 0.9002 -90.7879 334.9748)">
					<stop  offset="0" style="stop-color:#84A47F"/>
					<stop  offset="1" style="stop-color:#3B3B64"/>
				</linearGradient>
				<path style="fill:url(#SVGID_00000024701116164040732990000017104334628416881855_);" d="M112.66,586.87
					c-0.02-0.07-0.04-0.15-0.06-0.22c-0.68-2.27-1.89-4.37-3.51-6.1c-3.35-3.59-8.24-5.44-13.12-6.01c-4.88-0.58-9.81,0-14.69,0.57
					c0.2,3.52,1.84,6.84,4.1,9.55c2.26,2.71,5.11,4.85,8.04,6.8c3.35,2.23,6.96,4.28,10.94,4.83c3.99,0.55,8.44-0.69,10.77-3.96
					L112.66,586.87z"/>
			</g>
		</g>
		<g id="XMLID_207_">
			<g id="XMLID_226_">
				<g id="XMLID_284_">
					
						<linearGradient id="SVGID_00000042738492758332623030000015361858538919493046_" gradientUnits="userSpaceOnUse" x1="241.3697" y1="528.2283" x2="288.2465" y2="528.2283">
						<stop  offset="0" style="stop-color:#84A47F"/>
						<stop  offset="1" style="stop-color:#3B3B64"/>
					</linearGradient>
					<path style="fill:url(#SVGID_00000042738492758332623030000015361858538919493046_);" d="M266.8,674.8
						c-7.67-7.57-24.64-56.92-25.24-67.69c-0.98-17.81,1.71-36.2,10.46-51.74c3.15-5.59,7.03-10.73,10.44-16.17
						c19.76-31.48,22.29-73.07,6.5-106.71c-3.96-8.44-9.06-16.64-10.16-25.89c-1.13-9.57,2.94-18.89,7.79-27.22l1.57,1.14
						c14,10.16,19.76,27.22,17.89,44.42c-1,9.25-4.62,18.29-3.78,27.55c0.34,3.83,1.44,7.56,2.54,11.24
						c5.72,19.24,3.94,36.9-2.61,55.86c-10.64,30.78-34.47,45.72-33.64,87.52c0.25,12.43,18.83,58.74,34.42,69.95"/>
				</g>
				<g id="XMLID_281_">
					
						<linearGradient id="SVGID_00000011732166539197351230000015770907797485212337_" gradientUnits="userSpaceOnUse" x1="244.8445" y1="451.0713" x2="281.1117" y2="451.0713">
						<stop  offset="0" style="stop-color:#84A47F"/>
						<stop  offset="1" style="stop-color:#3B3B64"/>
					</linearGradient>
					<path style="fill:url(#SVGID_00000011732166539197351230000015770907797485212337_);" d="M279.34,474.76
						c-1.79-4.66-12.79-8.76-15.37-10.39c-11.2-7.04-18.46-23.78-19.13-36.99c13.08,3.38,24.61,12.38,31.07,24.26l5.2,18.35
						L279.34,474.76z"/>
				</g>
				<g id="XMLID_278_">
					
						<linearGradient id="SVGID_00000108288131605591180210000015176449005078860470_" gradientUnits="userSpaceOnUse" x1="246.3777" y1="479.5983" x2="280.6577" y2="479.5983">
						<stop  offset="0" style="stop-color:#84A47F"/>
						<stop  offset="1" style="stop-color:#3B3B64"/>
					</linearGradient>
					<path style="fill:url(#SVGID_00000108288131605591180210000015176449005078860470_);" d="M278.59,491.08
						c-6.08,2.65-10.13,1.31-15.37-1.55c-5.38-2.93-9.05-8.2-12.1-13.52c-1.71-2.99-3.29-6.05-4.74-9.17
						c8.99-0.45,27.67-0.51,32.99,9.12l1.29,11.21C280.66,487.17,279.47,490.7,278.59,491.08z"/>
				</g>
				<g id="XMLID_275_">
					
						<linearGradient id="SVGID_00000138574772523240021310000005843648385584320694_" gradientUnits="userSpaceOnUse" x1="284.4905" y1="460.2086" x2="312.9252" y2="460.2086">
						<stop  offset="0" style="stop-color:#84A47F"/>
						<stop  offset="1" style="stop-color:#3B3B64"/>
					</linearGradient>
					<path style="fill:url(#SVGID_00000138574772523240021310000005843648385584320694_);" d="M284.56,462.76
						c-0.57-3.54,2.72-8.67,5.09-10.43c11.17-8.27,19.73-10.12,23.12-9.72c1.31,10.72-6.12,21.68-7.89,24.48
						c-3.62,5.74-11.15,9.78-17.16,10.77c0,0-2.77-5.71-2.9-6.01C284.69,471.56,284.56,462.76,284.56,462.76z"/>
				</g>
				<g id="XMLID_272_">
					
						<linearGradient id="SVGID_00000035516526301752624450000013685273407788813729_" gradientUnits="userSpaceOnUse" x1="285.1867" y1="487.2276" x2="323.5387" y2="487.2276">
						<stop  offset="0" style="stop-color:#84A47F"/>
						<stop  offset="1" style="stop-color:#3B3B64"/>
					</linearGradient>
					<path style="fill:url(#SVGID_00000035516526301752624450000013685273407788813729_);" d="M286.42,503.16
						c10.9,3.67,27.75-9.24,31.83-18.34c1.91-4.27,4.4-7.62,5.29-12.22c-7.01-2.7-17.44-2.81-23.9,1.03
						c-3.93,2.34-11.64,9.51-11.46,14.08c0,0-3.17,5.47-2.99,7.14C285.38,496.51,286.42,503.16,286.42,503.16z"/>
				</g>
				<g id="XMLID_266_">
					
						<linearGradient id="SVGID_00000014625157362720093470000001099582956829464219_" gradientUnits="userSpaceOnUse" x1="260.3065" y1="530.1946" x2="330.1303" y2="530.1946">
						<stop  offset="0" style="stop-color:#84A47F"/>
						<stop  offset="1" style="stop-color:#3B3B64"/>
					</linearGradient>
					<path style="fill:url(#SVGID_00000014625157362720093470000001099582956829464219_);" d="M284.26,513.2
						c11.06-12.33,35.15-17.61,45.87-14.36c-2.56,10.51-7.77,19.62-16.93,25.38c-16.81,10.57-38.35,12.31-38.83,12.94
						c11.89-2.71,33.43-3.41,45.13,5.81c-16.36,19.78-43.72,23.38-58.21,15.9c0,0-1.23-4.37-0.95-5.09
						C260.63,553.06,284.26,513.2,284.26,513.2z"/>
				</g>
				<g id="XMLID_262_">
					
						<linearGradient id="SVGID_00000126299202973060808630000006826515587575962250_" gradientUnits="userSpaceOnUse" x1="249.5893" y1="576.7413" x2="314.6693" y2="576.7413">
						<stop  offset="0" style="stop-color:#84A47F"/>
						<stop  offset="1" style="stop-color:#3B3B64"/>
					</linearGradient>
					<path style="fill:url(#SVGID_00000126299202973060808630000006826515587575962250_);" d="M251.66,577.67
						c13.41,16.14,32.97,14.8,43.52,10.1c6-2.67,14.05-6.53,19.49-9c-6.47-9.44-17.56-15.69-28.99-16.15
						c-4.45-0.18-8.78,0.68-13.31,0.38c0,0-11.17-2.61-19.28,5.23C246.16,574.92,251.66,577.67,251.66,577.67z"/>
				</g>
				<g id="XMLID_253_">
					
						<linearGradient id="SVGID_00000178892109466103400500000009666405366612301217_" gradientUnits="userSpaceOnUse" x1="253.3206" y1="507.9761" x2="275.928" y2="507.9761">
						<stop  offset="0" style="stop-color:#84A47F"/>
						<stop  offset="1" style="stop-color:#3B3B64"/>
					</linearGradient>
					<path style="fill:url(#SVGID_00000178892109466103400500000009666405366612301217_);" d="M268.41,528.41
						c-0.02-2.19-3.42-4.96-5.52-7.23c-3.17-3.42-5.81-7.33-7.78-11.56c-0.91-1.95-1.7-4.01-1.78-6.17
						c-0.11-2.87,1.02-5.63,2.13-8.28c1.08-2.58,2.16-5.16,3.25-7.75c9.34,2.09,16.2,10.72,17.22,20.24c0.03,0.3-2.26,9.69-2.4,11.3
						C273.39,520.57,268.42,529.68,268.41,528.41z"/>
				</g>
				<g id="XMLID_250_">
					
						<linearGradient id="SVGID_00000066483921628668903980000001613085246393268129_" gradientUnits="userSpaceOnUse" x1="243.282" y1="531.3025" x2="262.942" y2="531.3025">
						<stop  offset="0" style="stop-color:#84A47F"/>
						<stop  offset="1" style="stop-color:#3B3B64"/>
					</linearGradient>
					<path style="fill:url(#SVGID_00000066483921628668903980000001613085246393268129_);" d="M253.14,553.74
						c-1.61-0.58-5.92-4.27-6.45-5.12c-2.9-4.6-3.62-9.15-3.35-14.53c0.27-5.38,1.93-10.57,4.33-15.27
						c1.66-3.27,3.69-6.37,4.68-9.94c9.15,7.46,13.01,21.16,9.06,32.12l-2.49,10.24L253.14,553.74z"/>
				</g>
				<g id="XMLID_247_">
					
						<linearGradient id="SVGID_00000181769992514401438940000010450776130108205447_" gradientUnits="userSpaceOnUse" x1="228.7456" y1="553.6495" x2="247.3845" y2="553.6495">
						<stop  offset="0" style="stop-color:#84A47F"/>
						<stop  offset="1" style="stop-color:#3B3B64"/>
					</linearGradient>
					<path style="fill:url(#SVGID_00000181769992514401438940000010450776130108205447_);" d="M243.55,578.59
						c-1.61-3.82-4.77-6.02-7.7-8.96c-7.37-7.4-8.77-19.39-5.28-29.23c1.37-3.86,3.43-7.59,3.68-11.68
						c4.47,2.05,6.84,6.92,8.66,11.49c3.73,9.39,6.07,19.42,2.8,28.98c0,0,1.97,5.83,1.63,6.25
						C246.99,575.85,243.55,578.59,243.55,578.59z"/>
				</g>
				<g id="XMLID_244_">
					
						<linearGradient id="SVGID_00000075854630612521226610000000987179301936537748_" gradientUnits="userSpaceOnUse" x1="221.8517" y1="582.7811" x2="244.3105" y2="582.7811">
						<stop  offset="0" style="stop-color:#84A47F"/>
						<stop  offset="1" style="stop-color:#3B3B64"/>
					</linearGradient>
					<path style="fill:url(#SVGID_00000075854630612521226610000000987179301936537748_);" d="M242.11,607.82
						c-2.74-2.28-6-3.84-8.85-5.99c-5.53-4.17-9.26-10.52-10.7-17.3c-1.43-6.78-0.65-13.94,1.78-20.42
						c0.77-2.07,1.73-4.16,1.69-6.36c10.94,8.3,17.57,21.65,15.61,35.24c0,0,2.63,7.76,2.66,8.14
						C244.35,601.51,242.11,607.82,242.11,607.82z"/>
				</g>
				<g id="XMLID_240_">
					
						<linearGradient id="SVGID_00000130606751653850927380000017945554043090020490_" gradientUnits="userSpaceOnUse" x1="217.7591" y1="613.8809" x2="248.449" y2="613.8809">
						<stop  offset="0" style="stop-color:#84A47F"/>
						<stop  offset="1" style="stop-color:#3B3B64"/>
					</linearGradient>
					<path style="fill:url(#SVGID_00000130606751653850927380000017945554043090020490_);" d="M247.48,632.1
						c-5.28,0.09-10.87-0.57-15.11-3.73c-3.08-2.29-5.15-5.69-6.73-9.19c-2.27-4.99-3.7-10.37-4.22-15.83
						c-0.14-1.49-0.22-3.02-0.72-4.43c-0.5-1.42-1.51-2.74-2.94-3.2c6.59-0.6,13.23,2.34,17.83,7.09c4.6,4.75,5.98,11.48,8.28,17.68
						c0.25,0.67,4.59,6.88,4.59,6.88L247.48,632.1z"/>
				</g>
				<g id="XMLID_237_">
					
						<linearGradient id="SVGID_00000096769300262323793050000014121803094644043695_" gradientUnits="userSpaceOnUse" x1="246.6648" y1="602.8082" x2="301.8738" y2="602.8082">
						<stop  offset="0" style="stop-color:#84A47F"/>
						<stop  offset="1" style="stop-color:#3B3B64"/>
					</linearGradient>
					<path style="fill:url(#SVGID_00000096769300262323793050000014121803094644043695_);" d="M248.65,608.81
						c2.61,2.32,5.53,4.4,8.88,5.38c1.72,0.5,3.52,0.7,5.31,0.9c2.74,0.3,5.47,0.6,8.21,0.9c2.24,0.24,4.53,0.49,6.74,0.06
						c2.13-0.41,4.08-1.42,5.96-2.5c6.82-3.93,12.97-9.01,18.13-14.96c-7.88,0.67-15.55-2.31-22.98-5.04
						c-7.42-2.73-15.35-5.29-23.12-3.76c-2.27,0.45-4.51,1.26-6.33,2.68l-0.8,1.01l-1.99,10.87L248.65,608.81z"/>
				</g>
				<g id="XMLID_233_">
					
						<linearGradient id="SVGID_00000070108752080407973750000003365806757326434740_" gradientUnits="userSpaceOnUse" x1="249.7071" y1="625.6301" x2="288.7784" y2="625.6301">
						<stop  offset="0" style="stop-color:#84A47F"/>
						<stop  offset="1" style="stop-color:#3B3B64"/>
					</linearGradient>
					<path style="fill:url(#SVGID_00000070108752080407973750000003365806757326434740_);" d="M257,635.41
						c6.18,1.47,12.79-0.44,18.13-3.87c5.34-3.43,9.62-8.26,13.65-13.17c-2.57,1.37-5.66,1.46-8.54,0.96
						c-2.87-0.49-5.62-1.53-8.43-2.29c-4.89-1.34-10-1.89-15.06-1.63c-2.66,0.14-5.77,0.83-6.83,3.28c0,0-0.53,2.68,0.08,4.68
						c0.61,1.99,3.85,9.62,3.85,9.62L257,635.41z"/>
				</g>
				<g id="XMLID_227_">
					
						<linearGradient id="SVGID_00000124859870256610171030000012599764517920212632_" gradientUnits="userSpaceOnUse" x1="281.6897" y1="436.5176" x2="306.5694" y2="436.5176">
						<stop  offset="0" style="stop-color:#84A47F"/>
						<stop  offset="1" style="stop-color:#3B3B64"/>
					</linearGradient>
					<path style="fill:url(#SVGID_00000124859870256610171030000012599764517920212632_);" d="M281.88,444.08
						c-0.01-0.08-0.02-0.15-0.02-0.23c-0.23-2.3,0.08-4.65,0.89-6.81c1.69-4.49,5.42-7.97,9.61-10.31
						c4.19-2.33,8.85-3.65,13.47-4.95c1.13,3.25,0.88,6.86-0.15,10.14c-1.03,3.28-2.81,6.28-4.73,9.13
						c-2.19,3.26-4.68,6.45-8.07,8.43c-3.39,1.98-7.87,2.52-11.19,0.43L281.88,444.08z"/>
				</g>
			</g>
		</g>
		<g id="XMLID_204_">
			
				<linearGradient id="SVGID_00000013169424119115117630000015288634641175559046_" gradientUnits="userSpaceOnUse" x1="2270.8525" y1="-469.5365" x2="2419.4048" y2="-469.5365" gradientTransform="matrix(-0.5808 0.814 0.814 0.5808 2013.2631 -924.2619)">
				<stop  offset="0" style="stop-color:#84A47F"/>
				<stop  offset="1" style="stop-color:#3B3B64"/>
			</linearGradient>
			<path style="fill:url(#SVGID_00000013169424119115117630000015288634641175559046_);" d="M246.36,715.93
				c-6.39,6.36-11.44,14.35-13.72,23.12c-1.18,4.53-0.89,8.67-1.12,13.24c-0.23,4.57-3.48,7.59-7.83,9.68
				c-3.5,1.69-7.73,2.09-11.29,0.53c-5.41-2.37-8.09-8.5-9.24-14.28c-1.56-7.85-2.79-17.48,3.81-22.09
				c10.18-7.11,3.31-16.73,14.83-28.67c4.34-4.5,16.43-6.22,21.63-9.68c6.34-4.22,8.37-12.63,13.68-18.1
				c7.06-7.28,19.44-7.86,28.03-2.47c2.5,1.56,4.79,3.58,7.63,4.36c5.15,1.42,10.34-1.56,15.3-3.54c7.4-2.95,15.8-3.76,23.37-1.28
				c7.57,2.48,14.11,8.48,16.34,16.13c-21.18-7.55-44.42,1.09-64.88,10.42C269.79,699.27,256.56,705.76,246.36,715.93z"/>
		</g>
		<g id="XMLID_201_">
			
				<linearGradient id="SVGID_00000052810742532789174930000005579145687780360869_" gradientUnits="userSpaceOnUse" x1="2080.7424" y1="-207.9131" x2="2235.9355" y2="-207.9131" gradientTransform="matrix(-0.4297 0.9029 0.9029 0.4297 1324.0375 -1155.4114)">
				<stop  offset="0" style="stop-color:#84A47F"/>
				<stop  offset="1" style="stop-color:#3B3B64"/>
			</linearGradient>
			<path style="fill:url(#SVGID_00000052810742532789174930000005579145687780360869_);" d="M233.61,629.85
				c-4.24,4.9-7.4,10.76-10.18,16.57c-8.3,17.34-13.73,36.66-15.32,55.84c-0.75,9.02-0.63,18.32,1.64,27.13
				c0.98,3.82,2.39,7.55,4.41,10.95c0.99,1.67,9.38,13.43,8.26,15.87c-3.8,8.25-16.97,11.64-24.22,17.1
				c-3.06,2.31-6.33,4.7-10.15,5.1c-8.65,0.9-15.72-10.13-18.68-16.98c-2.23-5.17-2.73-11.42,0.09-16.3
				c2.48-4.3,7.2-7.09,9.13-11.66c4.5-10.64-8.52-23.03-3.64-33.49c2.8-6,10.33-8.31,14.09-13.76c4.44-6.43,1.67-15.1,2.6-22.86
				C194.01,643.46,214.2,631.92,233.61,629.85z"/>
		</g>
		<g id="XMLID_197_">
			
				<linearGradient id="SVGID_00000064329841941425245990000004727011983308317074_" gradientUnits="userSpaceOnUse" x1="-86.2764" y1="454.5598" x2="46.5312" y2="454.5598" gradientTransform="matrix(0.9002 -0.4355 0.4355 0.9002 -90.7879 334.9748)">
				<stop  offset="0" style="stop-color:#84A47F"/>
				<stop  offset="1" style="stop-color:#3B3B64"/>
			</linearGradient>
			<path style="fill:url(#SVGID_00000064329841941425245990000004727011983308317074_);" d="M2.72,726.38
				c7.33-0.47,14.79,0.69,21.96,2.16c21.37,4.39,42.55,12.72,60.97,24.42c8.66,5.51,16.99,11.99,23.4,20.08
				c2.78,3.51,5.19,7.34,6.87,11.5c0.83,2.04,0.96,4.64,1.89,6.52c1.45,2.96,5.5,4.41,8.47,5.06c10.06,2.23,20.47-0.61,30.38-3.42
				c4.19-1.19,8.59-2.5,11.57-5.68c6.75-7.2,1.62-21.15-2.55-28.52c-3.15-5.57-8.45-10.3-14.8-11.1c-5.58-0.7-11.34,1.65-16.8,0.26
				c-12.7-3.22-14.98-23.49-27.78-26.25c-7.34-1.58-14.59,3.64-22.09,3.31c-8.85-0.39-14.8-8.84-22.44-13.32
				C42.17,699.91,17.9,710.25,2.72,726.38z"/>
		</g>
		<g id="XMLID_194_">
			
				<linearGradient id="SVGID_00000027566356810818327600000006418592338502053277_" gradientUnits="userSpaceOnUse" x1="846.8947" y1="1900.5234" x2="978.5847" y2="1900.5234" gradientTransform="matrix(0.9582 0.286 -0.286 0.9582 -248.0817 -1305.8574)">
				<stop  offset="0" style="stop-color:#84A47F"/>
				<stop  offset="1" style="stop-color:#3B3B64"/>
			</linearGradient>
			<path style="fill:url(#SVGID_00000027566356810818327600000006418592338502053277_);" d="M141.47,794.45
				c-7.49-7.09-19.12-6.09-29.38-5.04c-12.43,1.27-23.53,4.99-36.01,4.36c-12.48-0.63-28.32-5.99-38.19-13.64
				c-18.91-14.66-15.44-31.35-15.44-31.35c2.59-0.87,7.1,16.2,20.29,18.5c7.78,1.36,16.25-1.44,22.29,3.65
				c1.62,1.37,2.74,3.27,4.43,4.56c3.99,3.04,9.71,1.75,14.36-0.13c6.8-2.75,13.23-6.46,20.25-8.58c7.02-2.12,15.04-2.47,21.32,1.31
				c2.83,1.7,5.15,4.15,8,5.83c3.83,2.25,8.5,3.04,11.92,5.88c3.42,2.84,4.47,9.27,0.46,11.18"/>
		</g>
		<g id="XMLID_112_">
			
				<linearGradient id="SVGID_00000139976906516981982140000011124655764034696121_" gradientUnits="userSpaceOnUse" x1="2112.5039" y1="517.337" x2="2244.1829" y2="517.337" gradientTransform="matrix(-0.2527 0.9676 0.9676 0.2527 613.788 -1726.3005)">
				<stop  offset="0" style="stop-color:#84A47F"/>
				<stop  offset="1" style="stop-color:#3B3B64"/>
			</linearGradient>
			<path style="fill:url(#SVGID_00000139976906516981982140000011124655764034696121_);" d="M549.09,571.65
				c-2.17-10.08,4.71-19.5,10.93-27.74c7.53-9.97,16.48-17.53,22.41-28.52c5.94-11,9.57-27.31,8.15-39.73
				c-2.72-23.78-18.79-29.46-18.79-29.46c-2.09,1.77,10.17,14.47,5.29,26.95c-2.88,7.36-9.66,13.15-8.44,20.95
				c0.33,2.1,1.37,4.04,1.6,6.15c0.53,4.99-3.55,9.21-7.57,12.21c-5.88,4.39-12.38,7.96-17.84,12.86
				c-5.46,4.9-9.92,11.57-9.94,18.91c-0.01,3.3,0.88,6.56,0.83,9.86c-0.06,4.45-1.81,8.84-1.16,13.24c0.65,4.4,5.6,8.63,9.32,6.19"
				/>
		</g>
		<g id="XMLID_168_">
			<path class="st38" d="M300.97,546.82c-4.36,0.31-24.58-0.71-30.13-2.08c-0.32-0.6,0.03-1.33,0.38-1.92
				c2.45-4.19,4.91-8.38,7.36-12.56c7.08,0.49,14.61-0.11,21.69,0.38L300.97,546.82z"/>
		</g>
		<path id="XMLID_182_" class="st38" d="M277.19,539.72l-44.62,17.78c0,0-6.23,0-10.31,9.4c-1.1,2.54-11.44,64.33-11.44,64.33
			s9.85-3.17,21.97-2.49c12.12,0.68,17.44,3.74,17.44,3.74v30.35h120.04l34.49-40.68l-29.59-68.3l-54.28-15.81L277.19,539.72z"/>
		<path id="XMLID_200_" class="st39" d="M297.32,429.65c-0.96,1.21-2.08,2.19-3.29,3.03c-0.23-0.2-0.54-0.32-0.94-0.29
			c-8.48,0.74-18.35,0.13-23.28,8.48c-2.17,3.68-2.68,8.05-2.15,12.22c0.56,4.45,2.26,9.96,4.57,13.82
			c0.16,0.28,0.36,0.49,0.57,0.65c1,1.56,3.56,1.63,4.13-0.47c0.91-3.38-0.16-6.41-0.63-9.56c0.79-0.13,1.51-0.64,1.79-1.64
			c1.4-4.99,4.22-9.01,8.31-12.17c-0.02-0.02-0.03-0.03-0.05-0.05c0.8-0.98,0.64-2.33-0.02-3.18c4.97-2.22,9.79-4.46,12.54-9.63
			C299.38,429.91,298.05,428.73,297.32,429.65z"/>
		<path id="XMLID_111_" class="st39" d="M338.67,435.94c-0.77-0.39-1.53,0.03-1.79,0.65c-1.18,0.02-2.39,0.3-3.52,0.66
			c-1.46,0.46-2.36,2.61-0.99,3.74c7.41,6.07,6.84,19.23,5.11,27.73c-0.59,2.9,3.91,4.12,4.43,1.22c1.31-7.21,3.05-14.48,3.9-21.77
			C346.48,442.37,343.73,438.48,338.67,435.94z"/>
		<path id="XMLID_179_" class="st40" d="M279.7,542.95l1.36-38.28l-3.62-13.14c0,0-5.41,1.33-6.85-8.69
			c-1.16-8.07-1.08-9.2-1.08-9.2s-0.91-6.12,6.57-6.12l7.93-22.88c0,0,7.7-6.12,29.44-6.12c21.74,0,24.69,4.76,24.69,4.76
			l2.94,19.03l-0.68,4.98c0,0,4.76,0.51,4.76,5.27c0,4.76-1.7,12.23-1.7,12.23s-0.68,4.76-4.08,3.74c0,0-2.89,11.38-3.57,15.29
			c-0.68,3.91-1.19,19.2-1.19,19.2s-5.44,5.95-14.95,5.95l5.61,16.65c0,0,3.12,25.57-16.58,25.57S279.7,542.95,279.7,542.95z"/>
		
			<linearGradient id="XMLID_00000165930653842011229620000002346301188890789041_" gradientUnits="userSpaceOnUse" x1="314.9875" y1="423.407" x2="309.4782" y2="469.2025">
			<stop  offset="0" style="stop-color:#F7E2BB"/>
			<stop  offset="1" style="stop-color:#D2B795"/>
		</linearGradient>
		<path id="XMLID_108_" style="fill:url(#XMLID_00000165930653842011229620000002346301188890789041_);" d="M286.72,485.99
			c0,0,2.12,0.41,2.66-1.78c0.55-2.19-3.42-6.57,1.64-11.23c5.07-4.66,1.1-14.66,1.1-14.66s15.89-7.4,30.41-6.57
			c14.52,0.82,17.26,1.37,17.26,1.37s0.14-13.15-1.23-14.79c-1.37-1.64-6.03-3.7-11.23-3.97c-5.2-0.27-26.85,3.56-28.49,4.38
			c-1.64,0.82-14.52,12.19-14.52,12.19l-2.33,10.82L286.72,485.99z"/>
		<path id="XMLID_183_" class="st40" d="M214.92,638.87c-1.48,6.55-3.04,25.25,11.28,25.25c0,0,27.29,5.21,27.29-22.65
			c0-2.48,0.3-5.62-0.23-7.47c-5.41-18.97-36.42-6.23-36.42-6.23S215.48,636.38,214.92,638.87z"/>
		<path id="XMLID_3509_" class="st40" d="M551.6,543.83l-6.92-20.19l3.69-19.85c0,0,8.31-1.62,9.23-5.08
			c0.92-3.46,5.54-16.62,2.31-18.92c-3.23-2.31-4.15-3.46-4.15-3.46l5.31-24.93c0,0-18-15.69-41.77-15.69
			c-23.77,0-25.39,14.54-25.39,14.54l-2.77,17.08l1.15,6.92c0,0-3.69,2.31-3.69,4.15c0,1.85,5.31,17.77,5.31,17.77l0.46,18.69
			c0,0,5.31,11.08,6.23,12.46c0.92,1.38,12.06,2.57,12.06,2.57l-8.57,28.73c0,0,18.67,16.93,21.43,15.55
			C528.29,572.79,551.6,543.83,551.6,543.83z"/>
		
			<linearGradient id="XMLID_00000129168720115917065820000008812519981244456350_" gradientUnits="userSpaceOnUse" x1="1562.7612" y1="524.0714" x2="1610.2286" y2="524.0714" gradientTransform="matrix(-1 0 0 1 2107.2666 0)">
			<stop  offset="0" style="stop-color:#F7E2BB"/>
			<stop  offset="1" style="stop-color:#D2B795"/>
		</linearGradient>
		<path id="XMLID_3823_" style="fill:url(#XMLID_00000129168720115917065820000008812519981244456350_);" d="M512.66,529.9
			l17.31-2.6l14.54-17.66c0,0-2.86,21.9-12.64,26.14c-9.78,4.24-21.64,2.25-21.64,2.25L512.66,529.9z"/>
		<path id="XMLID_3843_" class="st39" d="M550.82,477.8c-1.04,1.51-2.43,7.71-3.33,12.15l-4.08-3.7l-0.69-10.85l-5.19-3.35
			l0.58-15.58c0,0-6.92-9-24.81-9.12c-17.89-0.12-19.39,2.88-19.39,2.88s-5.6-1.44-7.96-8.65c-1.73-5.29-1.15-16.33,7.33-20.14
			c0,0,13.74,5,20.94,1.56c12.81-6.12,32.14-2.48,36.35,6c0.44,0.88,2.6,6.98,2.6,6.98s8.12-1.91,11.25,1.79
			c6.35,7.5,4.62,14.42,4.62,14.42l-11.06,26.15C557.96,478.36,552.81,474.9,550.82,477.8z"/>
		
			<linearGradient id="XMLID_00000114790030260091232170000013838984897251179452_" gradientUnits="userSpaceOnUse" x1="1552.9596" y1="479.3408" x2="1560.5757" y2="504.0933" gradientTransform="matrix(-1 0 0 1 2107.2666 0)">
			<stop  offset="0" style="stop-color:#F7E2BB"/>
			<stop  offset="1" style="stop-color:#D2B795"/>
		</linearGradient>
		<path id="XMLID_3844_" style="fill:url(#XMLID_00000114790030260091232170000013838984897251179452_);" d="M549.34,481.88
			l-4.18,16.6c0,0,3.14,3.29,6.44-0.52c3.3-3.81,4.68-12.81,4.68-12.81s0.88-4.07-6.25-5.55L549.34,481.88z"/>
		<path id="XMLID_3299_" class="st44" d="M551.6,543.83c0,0-19.73,18.17-32.89,14.89c-13.15-3.29-11.83-9.49-11.83-9.49
			s-7.56,17.45,3.17,19.36c10.73,1.9,41.37-11.42,42.06-24.75"/>
		<path id="XMLID_3508_" class="st40" d="M615.54,662.57c0,0-4.62,17.83-4.44,19.56s-5.89,20.42-20.08,18.52
			c-14.19-1.9-15.75-19.21-15.75-19.21l10.04-23.54C585.3,657.9,602.15,655.3,615.54,662.57z"/>
		<path id="XMLID_99_" class="st44" d="M619.21,666.34v-77.33c0,0-0.2-7-0.55-10.29c-0.35-3.29-9.84-8.75-9.84-8.75l-40.16-21.12
			l-17.12-5.2c0,0-19.75,22.68-31,22.16c-11.25-0.52-13.39-16.59-13.39-16.59c0.32-1.55,0.6-2.69,0.6-2.69
			c-1.68-0.67-3.42,2.1-3.42,2.1l-31,9.68l-13.56,32.25l16.41,85.39l-25.16,88.85c0,0-18.67,21.3,19.62,27.69
			c4.85,0.81,10.4,1.34,16.36,1.65c37.27,9.86,97.65-5.14,98.26-5.34c0.69-0.23,8.4,0.69,6.69-9.23c-2.54-14.77-1.1-78.93-1.1-78.93
			s2.17,0.29,0-0.01l-5.7-42.69l6.01,0.12C601.21,658.76,619.21,666.34,619.21,666.34z"/>
		
			<linearGradient id="XMLID_00000053521319556948828780000000476244762063731845_" gradientUnits="userSpaceOnUse" x1="509.2922" y1="546.9153" x2="537.0521" y2="747.8102">
			<stop  offset="0" style="stop-color:#4B5DA5"/>
			<stop  offset="1" style="stop-color:#202853"/>
		</linearGradient>
		<path id="XMLID_100_" style="fill:url(#XMLID_00000053521319556948828780000000476244762063731845_);" d="M619.36,666.29v-6.24
			c-0.12-0.15-0.23-0.3-0.35-0.44c-2.4-2.73-5.68-4.3-8.71-6.22c-2.21-1.41-4.63-2.76-5.85-5.19c-2.32-4.6-1.42-9.98-1-14.9
			c0.29-3.34,0.64-6.78,0.1-10.11c-0.21-1.3-0.51-2.78-0.97-4.03c-0.58-1.55-1.57-1.93-3.01-2.51c-4.12-1.68-8.22-4.34-8.2-9.33
			c0.02-4.09,2.98-7.56,5.67-10.33c2.76-2.85,6.36-5.21,8.58-8.54c2.36-3.54-3.04-1.69-4.74-1.16c-2.9,0.89-5.55,2.4-8.44,3.28
			c-1.35,0.41-3.35,1.06-4.23-0.47c-0.75-1.3,0.21-3.17,0.73-4.35c1.31-3.03,3.3-5.68,5.2-8.35c0.57-0.8,1.14-1.6,1.68-2.42
			c-3.73-2.25-7.72-4.04-11.73-5.74c-4.64-1.96-9.34-3.79-13.86-6.01c-3.77-1.84-9.34-4.22-11.54-7.99
			c-0.19-0.33-0.32-0.65-0.42-0.98c-0.86-0.92-1.78-1.71-2.81-1.89c-2.22-0.38-4.79,1.32-6.57,2.41c-2.19,1.35-5.98,5.98-14.88,9.68
			c-12.36,5.14-21.93-1.17-23.96-2.8c-2.96-2.37-5.54-5.75-7.36-9.14c-0.08,0.34-0.15,0.68-0.19,1.02c0.38,0.99,0.6,2.07,0.89,3.04
			c1.03,3.55,3.29,6.57,5.86,9.18c2.96,3,6.52,5.97,10.7,6.82c14.62,2.97,20.96-4.77,20.64-4.14c-2.64,5.12-5.26,9.59-10.1,12.98
			c-4.83,3.39-10.32,4.39-16.09,4.87c-3.15,0.26-6.74,0.3-9.54,1.94c-0.14,0.08-0.27,0.17-0.4,0.26c-2.19,4.17-2.28,9.1-6.24,12.31
			c-5.96,4.85-15.07,5.86-22.36,7.25c-3.98,0.76-8.11,1.34-12.26,1.57l12.73,66.26l-25.16,88.85c0,0-18.67,21.3,19.62,27.69
			c4.85,0.81,10.4,1.34,16.36,1.65c37.27,9.86,97.65-5.14,98.26-5.34c0.69-0.23,8.4,0.69,6.69-9.23c-2.54-14.77-1.1-78.93-1.1-78.93
			s2.17,0.29,0-0.01l-5.7-42.69l6.01,0.12C601.36,658.72,619.36,666.29,619.36,666.29z"/>
		
			<linearGradient id="XMLID_00000071554820111011541180000001170927997851674524_" gradientUnits="userSpaceOnUse" x1="449.5116" y1="558.5998" x2="622.251" y2="558.5998">
			<stop  offset="0" style="stop-color:#4B5DA5"/>
			<stop  offset="1" style="stop-color:#202853"/>
		</linearGradient>
		<path id="XMLID_109_" style="fill:url(#XMLID_00000071554820111011541180000001170927997851674524_);" d="M476.72,560.06
			c2.25-1.59,4.69-2.94,7.19-4.14l-7.54,2.35l-1.27,3.02C475.63,560.86,476.17,560.44,476.72,560.06z"/>
		<path id="XMLID_178_" class="st39" d="M276.08,467.53c0,0,2.07-0.4,3.09,1.87c1.19,2.63,2.8,18.29,2.8,18.29l4.76-1.7l-1.02-14.61
			c0,0,8.49-5.1,8.15-5.61c-0.34-0.51-2.04-12.74-2.04-12.74l-15.8,7.13L276.08,467.53z"/>
		<path id="XMLID_177_" class="st39" d="M279.42,491.34c0,0-1.76,0.49-3.62,0.02c-0.11-0.03,4.98,17.39,4.98,17.39l1.53-2.55
			L279.42,491.34z"/>
		
			<linearGradient id="XMLID_00000121976869419443437100000007858185113863285910_" gradientUnits="userSpaceOnUse" x1="287.6089" y1="524.6422" x2="321.9449" y2="524.6422">
			<stop  offset="0" style="stop-color:#F7E2BB"/>
			<stop  offset="1" style="stop-color:#D2B795"/>
		</linearGradient>
		<path id="XMLID_175_" style="fill:url(#XMLID_00000121976869419443437100000007858185113863285910_);" d="M287.63,513.28
			c0,0,6,15.68,32.05,15.68l2.26,6.63C321.94,535.59,286.61,540.91,287.63,513.28z"/>
		
			<linearGradient id="XMLID_00000093159901408844503040000000624208472212699552_" gradientUnits="userSpaceOnUse" x1="256.2816" y1="479.5111" x2="262.8241" y2="500.7743" gradientTransform="matrix(0.9921 0.1251 -0.1251 0.9921 80.6168 -38.384)">
			<stop  offset="0" style="stop-color:#F7E2BB"/>
			<stop  offset="1" style="stop-color:#D2B795"/>
		</linearGradient>
		<path id="XMLID_1400_" style="fill:url(#XMLID_00000093159901408844503040000000624208472212699552_);" d="M279.84,487.29
			c0.08-0.11,0.16-0.22,0.22-0.35c1.13-2.11-0.36-3.73-0.97-5.73c-0.99-3.29,0.1-8.52-4.14-9.53c-0.15-0.04-0.28-0.09-0.4-0.15
			c-1.41,1.32-1.28,3.03-1.28,3.03s0.33,6.92,2.2,10.77C276.53,487.53,278.4,487.63,279.84,487.29z"/>
		<path id="XMLID_173_" class="st39" d="M339.9,467.22l-0.1-14.1c0,0,2.08,6.02,2.37,7.8c0.3,1.83-0.74,3.99-0.49,6.72L339.9,467.22
			z"/>
		<path id="XMLID_161_" class="st38" d="M279.63,530.99c5.97,6.91,21.92,22.85,21.97,23.97c0.35,7.81,11.25,15.8,11.25,15.8
			s-1.98,2.42-5.04,2.77c-2.13,0.24-8.55-2.19-12.25-3.68c-1.98,4.64-4.3,8.92-6.9,4.21c-6.72-10.95-10.5-18.87-17.99-29.45
			L279.63,530.99z"/>
		<path id="XMLID_106_" class="st39" d="M333.77,438.95c-9.05-1.58-18.18-1.54-27.16,0.47c-3.44,0.77-7.78,1.48-10.7,3.6
			c-3.41,2.47-5.05,7.87-6.91,11.48c-1.1,2.13,2.17,4,3.2,1.87c1.57-3.25,3.01-8.66,5.89-10.86c2.88-2.19,7.86-2.88,11.34-3.58
			c7.94-1.61,16.05-2.02,24.11-1.25C334.51,440.76,334.74,439.12,333.77,438.95L333.77,438.95z"/>
		<path id="XMLID_243_" class="st39" d="M344.23,420.59c-3.14,1.53-6.64,0.68-9.88-0.04c-3.35-0.74-6.68-1.47-10.08-1.98
			c-5.49-0.81-11.06-1.24-16.56-0.35c-10.12,1.64-20.26,6.59-22.5,17.39c-0.03,0.13-0.03,0.26-0.01,0.39
			c-1.06,1.38-2.09,2.81-3.1,4.26c-0.47,0.68-0.05,1.44,0.57,1.75c-0.34,0.21-0.67,0.43-1,0.66c-5.72,3.95-5.78,12.41-5.73,18.7
			c0.02,2.24,3.57,3.59,4.57,1.24c0.31-0.74,0.64-1.48,0.97-2.22c0.78,0.29,1.67,0.18,2.33-0.62c0.24-0.29,0.47-0.57,0.71-0.86
			c0.67,1.45,2.72,2.32,3.89,0.83c3.61-4.6,6.49-9.53,8.55-14.95c2.45-1.42,4.9-2.85,7.35-4.29c4.06-0.46,8.18-0.55,12.24-0.39
			c7.29,0.29,15.44,2.12,22.39-0.93c0.13-0.05,0.23-0.12,0.36-0.18c0.62,1,1.99,1.52,2.88,0.39c3.81-4.84,5.22-10.99,5.13-17.06
			C347.28,420.72,345.61,419.92,344.23,420.59z M328.79,437.37c0,0,0.01,0.01,0.01,0.01c-0.01,0-0.02,0-0.03,0
			C328.77,437.37,328.78,437.37,328.79,437.37z"/>
		
			<linearGradient id="XMLID_00000057117196200527751210000016280460818492232621_" gradientUnits="userSpaceOnUse" x1="296.5052" y1="564.1782" x2="312.8551" y2="564.1782">
			<stop  offset="0" style="stop-color:#D25C5C"/>
			<stop  offset="1" style="stop-color:#743131"/>
		</linearGradient>
		<path id="XMLID_98_" style="fill:url(#XMLID_00000057117196200527751210000016280460818492232621_);" d="M296.51,571.19
			c-0.22-0.16,5.07-16.44,5.07-16.44s0.09,7.23,11.27,16.01C312.86,570.76,304.53,576.87,296.51,571.19z"/>
		<path id="XMLID_97_" class="st38" d="M334.48,564.01c0,0-0.59-7.31-0.87-11.46c-0.35-5.07-4.2-8.92-4.2-8.92s-7-9.56-7.35-9.91
			l-0.84-0.05c-0.02,0.07,0.88,2.06,0.71,3.04c-1.29,7.26-4.7,21.9-4.6,22.01c-3.58,4.03-8.26,8.74-8.26,8.74s6.71,8.62,11.14,3.61
			c0.08-0.1,3.48-6.28,3.57-6.39c1.53,1.36,3.22,2.86,5.01,4.42C334.92,574.42,334.48,564.01,334.48,564.01z"/>
		<g id="XMLID_80_">
			
				<linearGradient id="SVGID_00000173118735935181084670000000184075583335590290_" gradientUnits="userSpaceOnUse" x1="293.7715" y1="530.6049" x2="282.083" y2="627.7651">
				<stop  offset="0" style="stop-color:#D25C5C"/>
				<stop  offset="1" style="stop-color:#743131"/>
			</linearGradient>
			<path style="fill:url(#SVGID_00000173118735935181084670000000184075583335590290_);" d="M276.06,548.94
				c-9.11,5.13-17.97,10.7-26.54,16.69c-0.48,0.34-0.99,0.71-1.17,1.27c-0.26,0.79,0.22,1.61,0.68,2.31
				c4.25,6.53,7.61,13.63,9.96,21.05c0.94,2.95,1.72,6.05,1.3,9.12c-0.4,2.95-1.89,5.65-2.51,8.57c-1.04,4.88,0.38,9.9,0.99,14.85
				c0.49,3.97,0.44,7.99,0.4,11.99c-0.06,5.24-0.12,10.48-0.18,15.72c-0.04,3.29-1.64,11.06,0.04,13.88
				c1.75,2.91,9.25,3.15,12.16,3.23c4.64,0.12,9.27-0.52,13.88-1.02c8.23-0.9,16.54-1.16,24.81-0.78c2.1,0.1,4.28,0.22,6.21-0.61
				c1.93-0.83,3.49-2.93,2.95-4.96c-0.33-1.21-1.3-2.12-2.28-2.91c-2.77-2.24-5.9-4.03-9.23-5.3c-1.22-0.46-2.55-0.92-3.28-2
				c-1.38-2.03,0.19-4.69,1.59-6.71c1.4-2.01,2.6-5.01,0.78-6.66c-0.51-0.47-1.19-0.72-1.86-0.88c-3.79-0.93-7.71,0.47-11.59,0.83
				c-3.46,0.32-6.99-0.21-10.2-1.54c-0.8-0.33-1.6-0.73-2.15-1.4c-0.7-0.86-0.87-2.03-0.93-3.14c-0.31-5.52,1.28-11.13,4.43-15.68
				c2.44-3.52,5.97-7,5.46-11.25c-0.4-3.33-3.19-5.76-5.58-8.12c-6.12-6.05-10.71-13.8-12.32-22.26c-1.61-8.46-0.1-17.61,4.77-24.71
				"/>
		</g>
		<path id="XMLID_265_" class="st39" d="M167.48,616.68c1.98,2.61,3.86,5.29,5.59,8.08c1.66,2.68,3.75,5.65,4.6,8.7
			c0.84,3,0.28,6.66,0.11,9.73c-0.21,3.66-0.56,7.32-1.08,10.95c-0.32,2.21,0.54,4.39,2.87,5.05c1.92,0.55,4.74-0.67,5.05-2.87
			c0.6-4.19,1.08-8.38,1.34-12.61c0.23-3.78,0.61-7.81-0.16-11.55c-0.72-3.51-0.31-10.17-2.12-13.22c-2-3.38-10.59-16.6-12.97-19.72
			c-1.35-1.78,0.33,10.65-1.76,11.84C167.21,612.05,166.14,614.92,167.48,616.68L167.48,616.68z"/>
		<path id="XMLID_76_" class="st39" d="M274.56,631c1.98-6.05,1.23-12.43-0.03-18.57c-1.46-4.07-2.35-8.36-2.91-12.73
			c-0.83-3.71-1.59-7.43-2.11-11.23c-1.92-14.14-1.7-28.42-2.69-42.63c-0.77-11.02-2.55-21.92-5.71-32.52
			c-2.36-7.88-5.48-16.03-10.57-22.6c-2.83-2.99-5.72-6.08-9.69-7.51c-4.33-1.56-8.75-0.52-13.12,0.22
			c-4.65,0.79-9.1,0.39-13.56-1.12c-1.08-0.37-2.03-0.28-2.81,0.09c-0.6-0.23-1.21-0.46-1.81-0.67c-5.53-1.96-11.6-2.81-17.45-2.44
			c-10.87,0.68-21.26,5.35-28.98,13.05c-8.14,8.12-12.38,19.12-14.21,30.3c-1.93,11.75-3.17,24.78,0.06,36.37
			c3.9,13.96,9.82,27.61,15.53,40.91c1.81,4.23,9.2,1.18,7.51-3.17c-6.47-16.63-6.8-36.21-3.28-53.6
			c1.75-8.66,6.36-15.27,13.44-20.5c6.76-4.99,14.92-8.54,23.45-8.11c4.98,0.25,9.69,2.2,14.55,3.15c2.57,0.51,5.67,0.99,8.03,0.24
			c0.07,0.04,0.13,0.09,0.2,0.13c2.89,1.81,5.09,3.24,6.95,6.19c1.87,2.96,3.46,6.16,4.78,9.4c1.35,3.31,2.42,6.73,3.25,10.2
			c0.82,3.41,1.05,6.88,1.71,10.31c0.35,1.8,1.24,3.43,2.56,4.49c0,4.97,0.9,10.07,1.06,14.97c0.33,10.41-1.3,20.73-3.91,30.78
			c-2.17,8.37-5.26,19.71,3.64,25.49c4.11,2.67,8.78,1.88,13.36,1.48c4.23-0.36,8.47-0.43,12.7-0.24
			C274.53,631.1,274.54,631.05,274.56,631z M234.97,499.3c-0.26-0.36-0.52-0.71-0.79-1.07c0.47,0.26,0.94,0.53,1.4,0.82
			C235.37,499.12,235.16,499.2,234.97,499.3z M238.36,491.15"/>
		<path id="XMLID_73_" class="st51" d="M347.95,647.24c-2.01-2.56-5.05-4.23-7.74-5.99c-3.44-2.26-6.93-4.46-10.58-6.36
			c-7.05-3.67-14.43-5.96-22.39-6.4c-9.55-0.52-19.2,0.29-28.77,0.2c-7.64-0.07-17.4,1.12-23.84-3.83
			c-1.77-1.36-4.58-0.26-5.62,1.47c-0.63,1.05-0.7,2.11-0.4,3.07c-0.25,0.11-0.51,0.21-0.76,0.33c-0.04,0.02-0.08,0.04-0.12,0.05
			c-12.06,4.53-25.04,5.15-37.62,7.47c-7.63,1.4-14.97,3.8-22.11,6.72c-1.17-0.96-2.8-1.34-4.52-0.47
			c-11.24,5.73-22.34,11.72-33.28,18c-10.42,5.98-21.28,11.86-30.97,19.01c-4.3,3.17-8.35,6.87-10.88,11.65
			c-2.74,5.16-3.58,10.97-3.97,16.73c-0.86,12.9-1.23,25.85-1.83,38.76c-0.35,7.55-0.7,15.09-1.05,22.64
			c-0.18,0.95-0.36,1.91-0.56,2.86c-0.59,2.92-0.63,5.82,0.03,8.53c-0.17,3.58-0.33,7.17-0.5,10.75c-0.1,2.16,1.96,4.11,4.11,4.11
			c27.04,0,198.72,0.35,198.72,0.35c0.72-8.08,2.28-22.54,5.26-30.08c3.07-7.8,6.98-15.25,10.02-23.08
			c6.31-16.29,11.99-32.84,17.94-49.27c2.96-8.16,5.92-16.33,8.87-24.49C347.87,663.19,353.2,653.93,347.95,647.24z M295.14,785.92
			c0.04-0.02,0.07-0.04,0.11-0.07c0,0.03-0.01,0.05-0.01,0.08C295.2,785.92,295.17,785.92,295.14,785.92z"/>
		<g id="XMLID_72_">
			<path class="st39" d="M190.08,636.41c0.14,2.86-4.55,3.03-6.1,5.43c-0.46,0.72-0.6,1.6-0.72,2.45
				c-0.55,3.78-1.11,7.56-1.66,11.35c-0.18,1.24-0.36,2.5-0.18,3.74c0.28,1.95,1.42,3.65,2.5,5.3c6.18,9.44,6.8,16.18,8.62,27.32
				c1.11,6.8,5.5,17.34,6.42,24.17c1.65,12.32,28.76,70.34,31.76,74.75c1.11,1.63,2.67,4.98,4.36,6h12.26
				c5.21-4.38,7.67-92.32,13.99-132.75c0.72-4.57,2.38-9,2.56-13.62c0.19-4.64-0.73-9.28-2.29-13.65
				c-1.94-5.41-5.76-11.06-11.48-11.58c-3.9-0.36-7.53,1.79-11.04,3.55c-8.77,4.39-18.58,6.68-28.39,6.62
				c-8.63-0.05-18.26-1.61-25.07,3.69"/>
		</g>
		<path id="XMLID_286_" class="st40" d="M250.6,563.2c-0.1-4.6-0.18-9.26-1.22-13.76c-1-4.34-5.6-33.86-17.88-40.32
			c-7.93-4.17-17.38-1.62-25.91,0.2c-8.44,1.8-17.4,2.85-25.43,6.1c-7.41,3-13.7,7.89-16.91,15.39c-3.29,7.68-3.42,11.74-3.57,19.97
			c-0.08,4.28,3.15,9.73,4.79,16.85c1.67,7.23,0.62,15.06,2.19,19.86c2.13,6.47,4.48,11.91,5.98,16.39
			c3.66,9.28,7.99,18.81,11.41,22.81c5.99,5.85,14.45,9.11,22.73,11.01c8.02,1.84,16.58,1.09,23.54-3.56
			c6.26-4.18,10.81-10.39,14.43-16.89c2.05-3.68,5.98-18.43,5.88-23.05C250.41,584.6,250.81,572.8,250.6,563.2z"/>
		<path id="XMLID_420_" class="st40" d="M251.08,629.29c-1.51-2.54-2.56-5.32-3.16-8.2c0.06-0.95-0.92-9-0.71-10.52
			c0.24-1.72-1.93-1.45-2.17,0.29c-0.07,0.5-0.13,0.99-0.17,1.49c-0.65-0.59-1.48-0.95-2.49-0.95c-1.97,0-4.21,1.89-3.98,4.11
			c0.27,2.5,0.54,5.01,0.8,7.51c-1.31,0.3-2.49,1.21-2.92,2.76c-0.17,0.6-0.33,1.21-0.5,1.81c-1.19-2.19-4.06-3.38-6.11-0.97
			c-1.49,1.74-3,3.44-4.55,5.12c-1.86,0.98-3.6,2.11-5.24,3.38c-1.31,0.42-2.64,0.75-3.99,0.94c-0.76,0.11-1.54,0.16-2.31,0.19
			c0.11-0.63,0.21-1.25,0.31-1.88c0.35-2.21-0.56-4.4-2.78-5.05c-1.89-0.56-4.55,0.68-4.89,2.87c-0.16,1-0.33,2-0.51,2.99
			c-1.07-0.21-2.14-0.28-3.2,0.06c-0.1,0.03-0.19,0.07-0.29,0.1c-0.77-1.99-1.37-4.06-1.8-6.21c-0.82-4.1-7.03-3.67-7.76,0.01
			c-1.03-4.09-2.67-7.99-5.16-11.44c-1.29-1.79-3.43-2.66-5.44-1.47c-0.25,0.15-0.48,0.34-0.69,0.55c0.41,0.66,0.71,1.45,0.96,2.28
			c0.4,0.27,0.74,0.7,0.91,1.35c0.1,0.36,0.17,0.72,0.24,1.08c0.37,1.66,0.34,3.69,0.66,5.38c0.11,0.46,2.06,12.52,2.05,15.53
			c-0.01,3.49-1,7.47-0.38,10.89c0.75,4.11,4.65,5.82,7.89,7.62c3.39,1.89,6.89,3.46,10.38,5.11c1.42,0.67,3.23,1.43,4.2,2.77
			c1.08,1.5,0.43,2.77-0.17,4.33c-1.48,3.82-1.49,7.05,0.75,10.56c2.24,3.49,4.44,6.98,6.42,10.65c4.39,8.14,7.84,16.74,10.39,25.68
			c0.06,0.22,0.14,0.42,0.22,0.61c0.53,2.23,1.28,4.39,2.29,6.47c0.61,1.26,1.27,2.91,2.77,3.17c1.43,0.25,2.33-0.88,2.83-2.11
			c0.8-1.96,0.76-4.57,0.99-6.67c0.28-2.56,0.51-5.13,0.7-7.69c0.05-0.27,0.08-0.56,0.07-0.87c0.41-5.84,0.6-11.69,0.65-17.55
			c0.04-5.7-0.06-11.41-0.25-17.11c-0.17-5.31-0.82-10.76-0.51-16.07c0.64-11,13.32-12.56,18.05-20.89
			C256,636.84,253.34,633.1,251.08,629.29z"/>
		<g id="XMLID_235_">
			<g>
				<path class="st39" d="M168.71,539.88c0.02,0,0.02-0.03,0-0.03C168.69,539.85,168.69,539.88,168.71,539.88L168.71,539.88z"/>
			</g>
		</g>
		<g id="XMLID_71_">
			<g>
				<path class="st39" d="M253.17,555.75c3.22,0,3.22-5,0-5C249.96,550.75,249.95,555.75,253.17,555.75L253.17,555.75z"/>
			</g>
		</g>
		<path id="XMLID_315_" class="st39" d="M154.88,504.99c-7.49,10.67-10.46,23.78-8.53,36.64c0.2,1.34,2.38,1.27,2.64,0
			c1-4.84,0.61-9.72,0.95-14.61c0.36-5.17,1.64-10.19,3.57-14.99c0.58-1.43-1.84-2.46-2.5-1.06c-0.15,0.33-0.31,0.65-0.46,0.98
			c-0.75,1.59,1.61,2.98,2.37,1.38c0.15-0.33,0.31-0.65,0.46-0.98c-0.83-0.35-1.67-0.7-2.5-1.06c-1.78,4.42-2.97,9-3.49,13.74
			c-0.59,5.28,0.05,10.63-1.03,15.85c0.88,0,1.76,0,2.64,0c-1.82-12.14,1.22-24.5,8.25-34.53
			C158.26,504.92,155.88,503.55,154.88,504.99L154.88,504.99z"/>
		<path id="XMLID_350_" class="st39" d="M154.88,546.36c0.81,0.75,1.77,0.78,2.8,0.48c1.34-0.4,2.66-0.92,3.99-1.38
			c-0.44-0.76-0.89-1.53-1.33-2.29c-0.86,0.77-1.82,1.34-2.88,1.8c-1.39,0.6-0.48,2.44,0.69,2.55c1.41,0.14,2.67-0.36,3.73-1.27
			c-0.65-0.65-1.29-1.29-1.94-1.94c-0.08,0.08-0.16,0.15-0.24,0.23c-1.28,1.21,0.66,3.15,1.94,1.94c0.08-0.08,0.16-0.15,0.24-0.23
			c1.3-1.22-0.61-3.07-1.94-1.94c-0.53,0.46-1.11,0.53-1.79,0.47c0.23,0.85,0.46,1.7,0.69,2.55c1.28-0.55,2.4-1.3,3.43-2.23
			c1-0.9-0.05-2.73-1.33-2.29c-0.86,0.3-1.73,0.6-2.59,0.9c-0.4,0.14-0.8,0.28-1.2,0.41c-0.15,0.05-0.3,0.1-0.46,0.15
			c-0.28,0.02-0.24,0.07,0.13,0.15C155.52,543.23,153.58,545.16,154.88,546.36L154.88,546.36z"/>
		<path id="XMLID_271_" class="st40" d="M254.42,546.34c-3.19-1.65-6.22,0.86-8.25,3.1c-1.18,1.3,0.75,3.25,1.94,1.94
			c0.49-0.54-0.22,1.19,0.32,0.77c-0.46,2.18,0.38,2.11,0.06,4.32c-0.11,0.74,0.33,1.38,0.9,1.63c0,1.26,0.04,2.52,0.12,3.78
			c0.01,2.64,0.02,5.28,0.03,7.91c0,0.35,0.12,0.62,0.29,0.83c-0.03,0.14-0.06,0.29-0.09,0.43c-0.12,0.19-0.2,0.41-0.21,0.69
			c-0.01,0.22-0.02,0.44-0.03,0.66c-0.03,0.65,0.39,1.08,0.91,1.26c-0.38,0.39-0.79,0.73-1.25,1.01c-1.05-1.09-3.11,0.21-2.19,1.6
			c0.18,0.28,0.36,0.55,0.55,0.83c0.3,0.46,0.97,0.86,1.55,0.63c3.51-1.43,6.51-2.62,7.58-6.12c1.35-4.4,1.18-10.97,1.15-15.6
			C257.78,553.01,257.51,547.94,254.42,546.34z"/>
		<path id="XMLID_185_" class="st40" d="M171.69,591.28c-1.16-3.88-2.32-7.75-3.47-11.63c-0.28-4.41-0.83-8.79-1.62-13.15
			c-0.14-0.75-0.66-1.03-1.22-0.98c-1.51-2.12-4.23-3.09-6.68-1.97c-3.05,1.4-3.32,5.11-3.04,8.02c0.43,4.52,1.45,9.4,3.04,13.66
			c1.4,3.73,4.69,9.82,8.65,9.24c0.88-0.13,2.31-0.04,2.65-0.64C170.91,594.48,172.1,592.65,171.69,591.28z M167.77,589.7
			c0.12-0.36,0.2-0.73,0.26-1.1C168.22,589.24,167.74,589.78,167.77,589.7z"/>
		<path id="XMLID_294_" class="st39" d="M178.5,665.08c-4.21-14.82-3.01-30.45-4-45.73c0.19-2.22,0.26-4.44,0.22-6.66
			c-0.17-0.4-0.34-0.8-0.52-1.19c-0.98-2.11-0.78-4.19-1.38-6.44c-0.85-3.18-2.12-6.67-2.71-9.94c-0.17-0.1-0.34-0.18-0.51-0.25
			c-0.4-0.46-4.18-0.55-5.34-1.03c-0.47-0.7-1.1-1.16-1.8-1.39c-1.5-1.9-2.88-4.38-4.02-7.3c-1.27-3.25-2.63-6.68-3.15-10.14
			c-1.08-7.12,1.24-14.19-0.17-21.25c-0.7-3.48-5.41-3.79-7.28-1.34c-0.39-7.14-0.89-14.28-1.39-21.42
			c-0.12-1.75-1.97-4.33-1.84-2.57c1.57,22.3,2.23,47.29,0.5,69.64c-0.45,5.82-1.13,11.63-2.1,17.39
			c-0.89,5.28-2.25,10.47-3.18,15.74c-1.59,9.07-0.17,19.21,5.77,26.59c3.3,4.09,7.68,5.27,12.65,6.21c4.25,0.8,8.49,1.6,12.74,2.41
			c1.12,1.04,2.75,1.23,4.15,0.78c0.41,0.08,0.81,0.15,1.22,0.23C176.45,667.76,179.3,665.38,178.5,665.08z"/>
		<path id="XMLID_267_" class="st39" d="M168.46,543.55c-2.45,2.63-3.69,5.84-4.16,9.38c-0.26,1.98-0.23,3.93-0.29,5.92
			c-0.01,0.28,0.13,1.72-0.13,1.91c-0.84,0.62-1.53-1.15-1.85-1.77c-0.8-1.57-3.16-0.19-2.37,1.38c1.36,2.68,5.46,5.99,6.78,1.4
			c0.62-2.14,0.24-4.55,0.39-6.75c0.25-3.51,1.11-6.9,3.56-9.53C171.6,544.19,169.66,542.25,168.46,543.55L168.46,543.55z"/>
		<path id="XMLID_268_" class="st39" d="M162.34,547.5c-0.01-0.03-0.02-0.07-0.03-0.1c-0.2-0.62-0.69-0.95-1.32-1.01
			c-0.04,0-0.08-0.01-0.13-0.01c-0.43-0.04-1,0.28-1.18,0.68c-1.24,2.69-1.06,7.52,0.47,10.08c0.73,1.22,2.45,0.62,2.55-0.69
			c0.2-2.64,0.12-5.23-0.22-7.85c-0.22-1.7-2.68-1.82-2.74,0c-0.15,4.55,0.06,9.04,2.78,12.87c0.75,1.06,2.56,0.76,2.55-0.69
			c0-1.36-0.94-2.33-0.91-3.76c0.05-2.71,0.15-5.42,0.23-8.12c-0.91,0-1.83,0-2.74,0c0.28,3.34-0.41,6.62,0.37,9.92
			c0.28,1.17,1.91,1.31,2.5,0.33c1.47-2.44-0.01-5.75,1.28-8.19c-0.83-0.11-1.67-0.22-2.5-0.33c0.17,0.82,0.24,1.65,0.21,2.49
			c0.01,1.76,2.75,1.77,2.74,0c-0.01-1.1-0.12-2.13-0.3-3.21c-0.2-1.17-1.98-1.32-2.5-0.33c-1.3,2.45,0.12,5.87-1.28,8.19
			c0.83,0.11,1.67,0.22,2.5,0.33c-0.72-3.02-0.02-6.12-0.28-9.19c-0.15-1.74-2.69-1.79-2.74,0c-0.08,2.71-0.15,5.42-0.23,8.12
			c-0.02,0.76-0.08,1.44,0.14,2.16c0.14,0.48,0.77,1.12,0.77,1.6c0.85-0.23,1.7-0.46,2.55-0.69c-2.45-3.46-2.54-7.37-2.4-11.48
			c-0.91,0-1.83,0-2.74,0c0.35,2.62,0.42,5.21,0.22,7.85c0.85-0.23,1.7-0.46,2.55-0.69c-0.72-1.21-0.74-2.47-0.71-3.84
			c0.02-0.94-0.15-2.62,0.24-3.47c-0.39,0.23-0.79,0.45-1.18,0.68c0.04,0,0.08,0.01,0.13,0.01c-0.44-0.34-0.88-0.67-1.32-1.01
			c0.01,0.03,0.02,0.07,0.03,0.1C160.23,549.9,162.88,549.19,162.34,547.5L162.34,547.5z"/>
		<path id="XMLID_223_" class="st39" d="M165.03,566.56c5.31-4.84,3.2-13.15,4.09-19.47c0.19-1.37-1.57-1.89-2.08-0.57
			c-2.36,6.08,1.86,13.77-3,19.05C163.42,566.24,164.36,567.17,165.03,566.56L165.03,566.56z"/>
		<path id="XMLID_69_" class="st39" d="M248.11,547.33c0.93-0.03,1.85-0.4,2.64-1.23c1.22-1.27-0.72-3.21-1.94-1.94
			c-0.05,0.05-0.09,0.09-0.14,0.13c0.13-0.38,0.18-0.78,0.19-1.19c0.2-0.22,0.34-0.52,0.37-0.9c0.12-1.75-0.11-3.28-0.74-4.92
			c-0.18-0.47-0.53-0.74-0.92-0.85c-0.34-1.66-0.68-3.31-1.02-4.97c-0.14-0.7-0.79-1-1.42-0.96c-0.21-0.77-0.41-1.55-0.59-2.33
			c0.12-2.13,0.32-4.33-0.43-6.33c-0.19-0.52-0.61-0.78-1.04-0.79c-0.1-0.79-0.13-1.55-0.06-2.24c0.35-0.3,0.55-0.76,0.39-1.33
			c-0.02-0.06-0.03-0.11-0.05-0.17c-0.16-0.61-0.72-0.97-1.32-1.01c-0.07,0-0.14-0.01-0.21-0.01c-0.45-0.02-0.89,0.25-1.14,0.62
			c-0.43,0.12-0.8,0.41-0.92,0.84c-1.35-3.96-3.35-7.65-6.35-10.71c-1.24-1.26-3.17,0.68-1.94,1.94c6.58,6.73,7.34,16.22,8.59,25.06
			c0.43,3,1.15,6.29,2.64,9.06c1.25,3.5,3.36,6.46,6.6,8.65c0.91,0.61,1.94-0.76,1.16-1.51
			C249.58,549.36,248.79,548.38,248.11,547.33z"/>
		<g id="XMLID_68_">
			
				<linearGradient id="SVGID_00000053538203741979194500000005444947840578397114_" gradientUnits="userSpaceOnUse" x1="185.6319" y1="630.3265" x2="247.2341" y2="630.3265">
				<stop  offset="0" style="stop-color:#F7E2BB"/>
				<stop  offset="1" style="stop-color:#D2B795"/>
			</linearGradient>
			<path style="fill-rule:evenodd;clip-rule:evenodd;fill:url(#SVGID_00000053538203741979194500000005444947840578397114_);" d="
				M185.63,627.55c2.46,5.73,11.64,22.8,29.38,22.53c18.08-0.27,33.01-20.89,32.19-39.52c-7.94,14.93-16.78,24.38-33.01,26.85
				C198.53,639.79,185.63,627.55,185.63,627.55z"/>
		</g>
		<g id="XMLID_67_">
			
				<linearGradient id="SVGID_00000130620460602873029040000017575405415981255091_" gradientUnits="userSpaceOnUse" x1="158.3279" y1="577.1573" x2="168.5453" y2="577.1573">
				<stop  offset="0" style="stop-color:#F7E2BB"/>
				<stop  offset="1" style="stop-color:#D2B795"/>
			</linearGradient>
			<path style="fill:url(#SVGID_00000130620460602873029040000017575405415981255091_);" d="M162.32,566.52
				c1.74-0.05,3.2,1.6,3.79,3.24c0.41,1.15,4.26,18.95,1.38,18.01c-6.3-2.05-8.15-11.15-8.77-14.66
				C158.31,570.78,157.21,566.67,162.32,566.52z"/>
		</g>
		<g id="XMLID_392_">
			
				<linearGradient id="SVGID_00000063592917787565673940000001423506182488927652_" gradientUnits="userSpaceOnUse" x1="223.9167" y1="696.9507" x2="242.302" y2="696.9507">
				<stop  offset="0" style="stop-color:#F7E2BB"/>
				<stop  offset="1" style="stop-color:#D2B795"/>
			</linearGradient>
			<path style="fill:url(#SVGID_00000063592917787565673940000001423506182488927652_);" d="M230.64,729.96
				c0.99,0.21,1.83-0.29,2.73-1.16c3.47-3.38,4.54-8.98,5.01-13.66c0.47-4.62,1.59-9.25,1.86-13.87c0.29-5.02-0.44-9.95-1.04-14.91
				c-0.57-4.74-1.06-9.49-2.33-14.11c-0.44-1.6-1.87-5.64-1.5-8.36c-3.07,4.47-6.13,8.93-9.2,13.4c-0.84,1.22-1.69,2.47-2.05,3.91
				c-0.38,1.53-0.17,3.13,0.04,4.69c0.4,2.96,0.82,5.92,1.23,8.87c1.1,7.88,2.19,15.77,3.29,23.65
				C229.23,722.27,229.77,726.16,230.64,729.96z"/>
		</g>
		
			<linearGradient id="XMLID_00000052074159290704856880000000933185317264280464_" gradientUnits="userSpaceOnUse" x1="271.8687" y1="720.4998" x2="302.5525" y2="720.4998">
			<stop  offset="0" style="stop-color:#92C9C2"/>
			<stop  offset="1" style="stop-color:#658781"/>
		</linearGradient>
		<path id="XMLID_62_" style="fill:url(#XMLID_00000052074159290704856880000000933185317264280464_);" d="M300.33,737.69
			c-0.39-0.32-0.79-0.64-1.18-0.97c0.17-0.22,0.28-0.5,0.31-0.85c0.32-0.32,0.51-0.73,0.49-1.15c0.12-0.23,0.2-0.51,0.21-0.83
			c0.04-2.9,0.07-5.8,0.1-8.7c0.6-0.23,1.09-0.76,1.11-1.61c0.21-6.42,0.41-12.84,0.61-19.25c0.12-1.45,0.25-2.91,0.4-4.36
			c0.08-0.22,0.11-0.47,0.07-0.76c-0.08-0.7-0.16-1.4-0.24-2.1c-0.07-0.61-0.37-1.06-0.76-1.35c0.23-0.69,0.44-1.39,0.61-2.12
			c0.05-0.21,0.03-0.39-0.02-0.54c0.09-0.16,0.19-0.32,0.28-0.49c1.69-3.05,2.57-5.8,1.24-9.18c-1.39-3.51-3.58-6.82-5.54-10.03
			c-2.2-3.59-4.56-7.07-7.06-10.46c-4.83-6.56-10.06-12.82-15.67-18.72c-0.45-0.47-1.15,0.23-0.71,0.71
			c10.08,11.11,18.57,23.51,25.63,36.73c1.14,2.13,2.28,4.32,1.56,6.78c-0.52,1.81-1.72,3.51-2.67,5.12
			c-1.92,3.25-3.94,6.45-6.08,9.56c-4.41,6.41-9.25,12.5-14.4,18.33c-0.44,0.5-0.59,1.41,0,1.89c5.91,4.86,11.82,9.71,17.74,14.57
			c1.09,0.89,3.48,2.19,4.07,3.53c0.63,1.43-1.27,3.44-2,4.54c-2.1,3.17-4.16,6.37-6.18,9.59c-2.68,4.27-5.27,8.59-7.8,12.95
			c-0.15,0.13-0.28,0.3-0.38,0.52c-0.09,0.19-0.17,0.38-0.25,0.57c-4.7,8.15-9.85,18.87-14.05,27.29h20.07c0.89-0.1,0.9,0.06,1-0.83
			c1.44-12.51,3.6-24.91,6.44-37.18c0.25-0.83,0.45-1.68,0.59-2.56c0.18-1.14-0.75-1.9-1.62-1.9c0.29-0.47,0.58-0.93,0.88-1.4
			c1.86-2.91,4.48-5.88,5.77-9.09C304.01,741.12,302.43,739.41,300.33,737.69z M281.61,722.08c0.03,0.14,0.07,0.27,0.12,0.41
			c-0.09-0.08-0.19-0.15-0.28-0.23c0.06-0.06,0.11-0.13,0.16-0.19C281.61,722.07,281.61,722.07,281.61,722.08z M274.23,794.22
			c-0.12-0.02-0.23-0.05-0.35-0.07c0.15-0.31,0.3-0.61,0.46-0.92C274.3,793.56,274.26,793.89,274.23,794.22z"/>
		
			<linearGradient id="XMLID_00000175300391173949976270000006108144042461458563_" gradientUnits="userSpaceOnUse" x1="152.8141" y1="736.9562" x2="229.5484" y2="736.9562">
			<stop  offset="0" style="stop-color:#92C9C2"/>
			<stop  offset="1" style="stop-color:#658781"/>
		</linearGradient>
		<path id="XMLID_63_" style="fill:url(#XMLID_00000175300391173949976270000006108144042461458563_);" d="M229.14,795.53
			c-9.75-2.63-17.4-9.32-25.17-15.44c-3.67-2.89-7.4-5.7-11.46-8.02c-4.51-2.58-9.25-4.73-13.51-7.73
			c2.46-4.43,4.93-8.85,7.39-13.28c1.23-2.21,2.65-4.4,3.72-6.68c0.48-1.02,0.95-2.07,0.44-3.18c-0.62-1.36-2.17-1.72-3.45-2.18
			c-2.51-0.9-5.02-1.79-7.5-2.78c-4.54-1.8-9.02-3.78-13.4-5.93c-2.09-1.03-4.16-2.11-6.21-3.22c-1.83-0.98-5.71-2.11-5.71-4.71
			c0-1.15,1.05-2.85,1.46-3.93c0.45-1.19,0.9-2.38,1.36-3.57c0.97-2.55,1.92-5.1,2.87-7.65c3.67-9.87,7.31-19.74,10.87-29.64
			c0.22-0.62-0.73-0.85-0.97-0.27c-4.02,9.76-7.95,19.56-11.84,29.37c-1.87,4.71-4.02,9.4-5.57,14.22c-1.27,3.94,0.98,5.13,4.16,7
			c1.59,0.94,3.21,1.84,4.84,2.72c-0.1,0.26-0.08,0.55,0.18,0.77c1.19,1,2.38,2.01,3.57,3.02c-0.13,0.6,0.05,1.26,0.71,1.61
			c1.15,0.62,2.29,1.24,3.44,1.86c1.13,0.92,2.27,1.83,3.43,2.71c2.89,2.18,5,3.82,3.24,7.77c-1,2.23-2.21,4.38-3.32,6.56
			c-2.31,4.54-4.73,9.07-6.85,13.7c-0.6,1.3-1.14,2.65-0.95,4.11c0.26,1.97,2.1,3.03,2.46,4.89c0.59,3.12-2.22,6.58-2.85,9.56
			c-0.64,3.02,0.09,6.01,2.53,7.99c2.48,2,7.64,1.68,10.51,1.72c0,0,13.79-0.02,14.27,0h34.79
			C226.61,796.92,230.77,795.96,229.14,795.53z"/>
		<path id="XMLID_60_" class="st39" d="M478.03,485.9c-0.78-5.75-2.78-11.29-7.96-14.44c-4.04-2.45-9.33-4.83-12.02-10.33
			c-0.3-0.61-0.33-1.13-0.82-1.34c-1.63-4.27-8.39-6.09-12.22-7.47c-10.09-3.64-21.05-5.1-31.75-4.46
			c-20.73,1.25-44.36,10.42-55.03,29.41c-1.53,2.72-2.9,5.56-2.24,8.75c0.64,3.09,2.14,6.17,3.29,9.1c-0.04,2.18-0.2,4.37-0.4,6.51
			c-0.44,4.72-1.85,9.31-1.95,14.07c-0.1,4.95,1.64,8.11,4.94,11.65c2.86,3.07,5.91,5.64,9.82,7.22c2.78,1.12,5.71-2.19,4.84-4.84
			c-1.46-4.43-2.58-9.03-3.5-13.67c1.46-0.87,2.46-2.72,1.54-4.69c-1.04-2.37-1.39-5-2.33-7.42c-0.54-1.4-1.11-2.8-1.67-4.2
			c-0.29-1.22-0.55-2.45-0.78-3.69c-0.33-1.8-0.55-3.6-0.7-5.42c10.72-7.69,22.37-13.74,35.55-15.69c6.52-0.97,13.24-0.94,19.8-0.42
			c3.85,0.3,7.86,0.81,11.43,2.36c3.47,1.5,6.53,3.87,9.38,6.31c3.18,2.72,6.42,4.98,7.8,1.51c1.9,9.46,2.73,14.82,5.3,24.11
			c0.05,0.43,6.44,11.68,6.63,15.63c0.23,4.82,7.39,6.18,8.67,1.17C476.95,512.73,479.83,499.24,478.03,485.9z"/>
		<g id="XMLID_59_">
			<path class="st57" d="M393.81,615.9c-12.39,9.55-25.08,19.26-39.9,24.28c-14.86,5.04-32.79,6.06-42.27,18.56
				c-3.43,4.53-5.25,10.06-6.58,15.58c-3.32,13.75-3.99,27.98-5.02,42.09c-1.95,26.52-5.64,54.31-10.24,80.5c0,0,256.22,0,305.36,0
				c2.28,0,4.77-2.18,6.98-2.72c2.36-0.58,4.39-2.1,6.08-3.86c7.57-7.91,8.64-19.93,8.24-30.87c-0.99-26.87-8.25-53.06-15.47-78.96
				c-3.23-11.59-6.46-23.19-9.69-34.78c-1.09-3.9-1.87-8.44-5.1-10.89c-6.29-4.76-15.6-6.4-24.38-6.68
				c-22.85-0.72-41.2-17.1-59.95-30.17c-5.11-3.56-13.74-9.01-16.76-6.82c-3.8,2.76-3.44,13.47-6.81,16.74
				c-2.62,2.55-6.65,2.78-10.3,2.97c-18.46,0.95-36.78,4.43-54.3,10.32c-2.39,0.8-4.92,1.66-7.39,1.14
				c-2.93-0.63-5.08-3.04-7.65-4.56c-2.57-1.53-6.59-1.77-7.93,0.91"/>
		</g>
		<g id="XMLID_82_">
			
				<linearGradient id="SVGID_00000093893521936120279400000014376647097276423340_" gradientUnits="userSpaceOnUse" x1="226.338" y1="701.6309" x2="334.4585" y2="860.5243">
				<stop  offset="0" style="stop-color:#3B3B64"/>
				<stop  offset="0.9995" style="stop-color:#312E3C"/>
				<stop  offset="1" style="stop-color:#312E3C"/>
			</linearGradient>
			<path style="fill:url(#SVGID_00000093893521936120279400000014376647097276423340_);" d="M290.58,794.55
				c-0.14,0.79-0.27,1.58-0.41,2.37c0,0,0.17,0,0.48,0C290.62,796.13,290.59,795.33,290.58,794.55z"/>
		</g>
		<g id="XMLID_96_">
			
				<linearGradient id="SVGID_00000080164248335473163530000001867996422075088781_" gradientUnits="userSpaceOnUse" x1="365.6746" y1="606.8212" x2="473.7926" y2="765.7109">
				<stop  offset="0" style="stop-color:#3B3B64"/>
				<stop  offset="0.9995" style="stop-color:#312E3C"/>
				<stop  offset="1" style="stop-color:#312E3C"/>
			</linearGradient>
			<path style="fill:url(#SVGID_00000080164248335473163530000001867996422075088781_);" d="M613.38,770.4
				c-0.44-7.56-2.52-16.13-7.48-22.08c-3.62-4.34-9.45-5.16-14.17-7.94c-5.82-3.43-7.45-8.75-6.42-15.17
				c0.26-1.62,0.63-3.61,0.81-5.64c-0.73-0.09-1.67,0.02-2.17,0.02c-1.45-0.01-2.9,0.09-4.34,0.25c-3.06,0.35-6.15,1.05-9.11,1.89
				c-4.83,1.38-9.4,3.48-13.91,5.68c4.47-0.48,9.19-0.18,12.78,1.68c1.09,0.57,0.46,2.04-0.58,2.13c-3.02,0.27-6.13-0.38-9.18-0.38
				c-3.05,0-6.18,0.29-9.17,0.88c-6.32,1.26-12.16,4.37-16.69,8.96c-0.23,0.23-0.64-0.07-0.45-0.35c3.85-5.72,9.4-9.44,15.97-11.44
				c1.15-0.35,2.4-0.67,3.7-0.93c2.46-2.51,5.36-4.75,8.54-6.64c5.44-3.73,11.43-6.62,17.7-8.78c1.69-0.58,3.39-1.1,5.11-1.56
				c-0.29-0.34-0.62-0.65-1-0.93c-4.76-3.53-12.63-0.64-18.02-0.56c-5.41,0.08-11.8-1.81-14.01-7.28c-1.41-3.5-0.3-7.24,1.78-10.23
				c5.18-7.42,13.59-12.73,20.91-17.8c3.67-2.55,7.47-5.03,10.8-7.92c1.33-1.15,2.62-2.35,3.76-3.7c0.35-0.41-0.09,0.23,0.37-0.5
				c0.15-0.24,0.3-0.49,0.45-0.73c0.04-0.06,0.07-0.11,0.09-0.15c-0.01,0,0.04-0.08,0.08-0.14c0.01-0.04,0.03-0.09,0.04-0.14
				c0.02-0.71-0.07-1.37-0.12-1.6c-0.07-0.35-0.16-0.7-0.27-1.04c-0.02-0.06-0.03-0.11-0.04-0.14c-0.02-0.03-0.06-0.11-0.14-0.29
				c-0.05-0.1-0.14-0.25-0.21-0.38c-0.1-0.1-0.28-0.26-0.39-0.37c-0.12-0.07-0.28-0.17-0.41-0.24c-0.09-0.02-0.19-0.06-0.29-0.09
				c-0.17-0.06-0.59-0.14-0.74-0.17c-0.23-0.02-0.46-0.04-0.68-0.05c-0.74-0.01-1.48,0.03-2.22,0.11c-0.03,0.01-0.41,0.06-0.87,0.16
				c-0.45,0.1-0.91,0.19-1.36,0.3c-0.89,0.21-1.77,0.46-2.64,0.73c-7.69,2.35-14.81,6.4-22.59,8.45c-2.99,0.79-6.57,1.37-9.4-0.25
				c-3.6-2.07-4.03-6.25-2.96-9.88c-0.22-2.24,0.28-4.49-0.16-6.71c-0.55-2.79-2.99-4.03-5.58-4.46c-1.84-0.3-3.71-0.41-5.57-0.58
				c-2.14,0.32-4.31,0.42-6.41,0.27c-7.72-0.54-14.42-4.5-19.19-10.52c-4.79-6.05-5.55-12.78-6.77-20.14
				c-0.78-4.72-1.88-9.35-3.88-13.6c-1.62-1.66-3.27-3.31-4.95-4.92c-1.94-1.54-3.89-3.08-5.89-4.5c-0.11,0.06-0.23,0.12-0.33,0.2
				c-3.8,2.76-3.44,13.47-6.81,16.74c-2.62,2.55-6.65,2.78-10.3,2.97c-18.46,0.95-36.78,4.43-54.3,10.32
				c-2.39,0.8-4.92,1.66-7.39,1.14c-2.93-0.63-5.08-3.04-7.65-4.56c-0.86-0.51-1.88-0.87-2.9-1.03c-2.17,6.28-8.17,11.1-11.62,16.93
				c-5.31,8.98-1.64,21.2,1.74,30.25c1.3,3.47,3.72,4.68,6.52,6.97c3.44,2.81,5.21,6.62,5.29,11.05c0.09,4.76-2.01,9.34-1.75,14.06
				c0.22,3.94,3.4,7.34,5.01,10.85c1.76,3.85,3.12,8.11,1.89,12.34c-1.18,4.07-4.84,7.48-9,8.33c-7.93,1.62-16.01-3.78-22.16-8.12
				c-7.75-5.47-12.41-13.29-16.04-21.92c-1.79-4.24-3.14-8.6-4.69-12.94c-1.43-4-3.39-7.19-7.17-9.3
				c-4.43-2.47-9.15-4.41-13.56-6.92c-1.29-0.37-2.54-0.87-3.84-1.49c-0.89-0.42-1.77-0.89-2.66-1.33c-1.52-0.21-3.05-0.38-4.58-0.5
				c3.69,2.86,7.57,5.48,11.11,8.66c4.47,4.02,12.61,12.95,6.53,18.98c-2.86,2.84-8.51,2.68-12.32,3.42
				c-2.04,0.4-4.07,0.85-6.09,1.34c-1.16,0.28-2.31,0.6-3.45,0.97c-0.47,0.15-0.94,0.32-1.4,0.49c-0.15,0.06-0.3,0.12-0.45,0.18
				c-0.02,0.01-0.08,0.04-0.21,0.1c-0.47,0.22-0.93,0.45-1.38,0.71c-0.21,0.12-0.95,0.63-0.96,0.6c-0.14,0.12-0.39,0.39-0.52,0.56
				c0,0.12-0.01,0.21-0.02,0.23c0.11,0.55,0.39,0.88,0.98,1.66c3.43,4.58,9.33,6.86,10.76,12.9c1.72,7.29-3.46,14.11-6.76,20.12
				c-3.47,6.31-6.03,13.59-6.72,20.78c-0.83,8.61-0.13,17.32-0.86,25.96c-0.4,4.74-0.87,9.48-1.37,14.22h289.14
				c2.28,0,4.77-2.18,6.98-2.72c2.36-0.58,4.39-2.1,6.08-3.86c2.23-2.33,3.9-5.03,5.13-7.94
				C613.78,778.37,613.6,774.31,613.38,770.4z"/>
		</g>
		<path id="XMLID_58_" class="st51" d="M485.29,584.6c-2.54-2.73-6.08-4.89-9.15-6.97c-4.39-2.97-8.51,4.14-4.15,7.1
			c1.38,0.93,2.75,1.89,4.09,2.88c0.56,0.42,1.3,0.88,1.98,1.39c-0.2,0.33-0.38,0.72-0.51,1.15c-6.04,19.41-12.08,38.84-16.72,58.64
			c-2.32,9.87-3.93,19.85-5.93,29.78c-1.9,9.44-5.23,18.31-8.96,27.16c-1.05-4.87-2.64-9.66-4.14-14.27
			c-2.81-8.63-6.12-17.1-9.84-25.38c-7.76-17.24-17.7-33.08-28.82-48.32c-0.66-0.91-1.77-1.6-2.93-1.87c1.32-5.65,1.64-11.55,1-17.3
			c-0.25-2.21-1.71-4.11-4.11-4.11c-2.03,0-4.36,1.89-4.11,4.11c0.75,6.72,0.15,13.35-2.04,19.76c-2.17,6.37-6.43,11.75-8.57,18.13
			c-1.97,5.84-1.76,12.75,2.26,17.69c3.72,4.57,9.82,5.55,13.87,9.57c4.93,4.88,3.53,11.05,4.29,17.29
			c0.71,5.77,3.88,10.28,7.97,14.24c3.71,3.59,8.31,6.82,10.43,11.69c1.22,2.81,1.73,5.95,2.37,8.92c0.83,3.87,1.65,7.74,2.46,11.61
			c3.52,16.72,6.91,33.47,10.18,50.24c0.26,1.35,0.99,2.19,1.91,2.62c0.85,1.26,2.6,1.94,4.03,1.75c2.18-0.29,3.31-1.97,3.56-4.04
			c1.84-14.71,5.28-29.18,9.09-43.49c1.91-7.18,3.8-14.4,5.97-21.5c1.96-6.42,5.27-11.65,8.63-17.38
			c3.27-5.56,5.22-11.24,5.13-17.74c-0.08-5.45-1.74-12.19,2.08-16.75c2.01-2.4,4.25-4.32,5.44-7.3c1.35-3.39,1.51-7.23,1.95-10.82
			c0.93-7.48,1.72-14.99,2.37-22.5c0.74-8.59,1.31-17.19,1.67-25.8C488.18,591.03,487.98,587.49,485.29,584.6z"/>
		<path id="XMLID_254_" class="st40" d="M479.64,591.46c-1.29-10.87-4.38-22.46-4.38-22.46c-1.96-1.98-12.36-5.38-13.82-3.22
			c-7.23,10.69-16.45,21.37-27.4,28.39c-2.51,1.61-5.15,3.01-8.01,3.86c-3.04,0.91-5.74,0.79-8.86,0.6
			c-3.32-0.21-5.41,1.5-6.87,3.95c-1.46-0.15-3.03,0.43-4,1.9c-0.19-3.15-0.82-6.24-1.97-9.27c-1.86-4.89-9.81-2.77-7.92,2.18
			c0.88,2.3,1.55,4.67,1.74,7.14c0.05,0.62,0.68,11.68,9.2,30.92c3.52,6.86,7.18,13.65,10.99,20.36
			c4.93,8.68,10.81,19.12,14.04,27.05c1.97,4.84,10.29,22.02,11.11,26.4c0.62,3.31,1.79,4.58,3.74,2.37
			c1.11-1.25,9.46-20.03,10.61-25.59c1.15-5.54,6.28-28.45,7.01-34.31c0,0,0.62-9.67,2.19-15.07c1.44-4.95,6.73-13.16,8.22-18.08
			C478.02,609.46,480.86,601.74,479.64,591.46z M467.97,580.75c-3.09,4.29-4.31,9.47-6.93,14.01c-2.67,4.61-7.4,6.93-12.18,8.84
			c-10.54,4.2-21.64,6.91-32.93,8.01c0.65-1.79,1.33-3.69,1.6-4.73c0.13,0.02,0.25,0.03,0.38,0.05c0.75,0.07,1.48,0.15,2.23,0.16
			c1.55,0.03,3.09-0.14,4.62-0.38c6.19-0.97,11.88-4.13,16.84-7.84c9.1-6.8,17-15.24,23.73-24.41c1.31,1.7,2.47,3.5,3.49,5.39
			C468.51,580.11,468.22,580.4,467.97,580.75z"/>
		<path id="XMLID_55_" class="st40" d="M484.48,536.81c0.5-6.99,3.6-14.66-3.27-19.64c-2.44-1.77-5.56-2.64-8.55-2.18
			c-1.81,0.28-3.31,1.35-5.08,1.72c-2.37,0.49-3.56-1.28-4.35-3.22c-1.66-4.07-2.32-8.75-3.3-13.01c-1.06-4.62-1.99-9.27-3.03-13.9
			c-0.75-3.33-1.97-6.46-4.72-8.64c-2.86-2.27-6.54-3.22-10.02-4.07c-9.57-2.34-19.51-3.29-29.35-2.82
			c-4.92,0.24-9.83,0.83-14.66,1.76c-2.04,0.39-4.13,0.76-6.02,1.49c-0.17-0.07-0.38-0.06-0.55,0.09c-0.13,0.11-0.26,0.21-0.39,0.32
			c-0.95,0.46-1.83,1.03-2.61,1.78c-3.71,2.13-7.99,3.2-11.84,5.07c-2.19,1.07-8.05,5.71-11.33,16.3
			c-1.02,3.29-2.32,28.56-0.54,31.54c2.2,3.67,3.74,7.63,4.74,11.78c0.05,0.19,0.12,0.35,0.21,0.48c0.73,6.63,2.06,13.19,3.89,19.59
			c0.73,2.54,1.61,4.98,2.59,7.36c0.79,2.86,2.15,5.58,3.77,8.19c1.45,2.93,2.97,5.85,4.44,8.85c1.01,2.07,1.88,4.18,2.56,6.38
			c0.5,1.63,16.44,19.73,20.1,22.71c2.84,2.31,8.82,1.33,12.64,1.46c2.25,0.07,4.57-0.11,6.88-0.41c1.37-0.07,2.77-0.27,4.05-0.64
			c1.31-0.24,2.6-0.5,3.85-0.75c5.28-1.08,10.47-2.67,15.46-4.7c0.23-0.09,0.42-0.22,0.58-0.38c5.51-1,9.41-5.39,11.85-10.57
			c1.79-3.81,2.93-7.9,4.85-11.65c1.75-3.42,4.24-6.4,5.91-9.86c1.77-3.67,2.14-7.57,2.09-11.6c-0.02-2.12-0.33-4.38-0.03-6.48
			c0.35-2.52,2.55-2.29,4.44-3.24C487.03,552.25,484.02,543.1,484.48,536.81z"/>
		<g id="XMLID_54_">
			<g>
				<path class="st40" d="M424.31,606.08c9.65,0,9.67-15,0-15C414.65,591.08,414.64,606.08,424.31,606.08L424.31,606.08z"/>
			</g>
		</g>
		<path id="XMLID_53_" class="st39" d="M458.36,484.53c0.98,0.44,1.96,0.97,2.97,1.32c0.92,0.31,1.92,0.47,2.87,0.69
			c2.33,0.53,3.58-2.49,1.6-3.8c-0.81-0.54-1.62-1.16-2.48-1.61c-0.95-0.49-2.01-0.83-3-1.24c-1.16-0.47-2.57,0.42-3,1.47
			C456.89,482.43,457.19,484,458.36,484.53L458.36,484.53z"/>
		<path id="XMLID_52_" class="st39" d="M350.68,477.29c-2.4,5.99-1.86,12.26,0.64,18.14c2.1,4.94,6.51,9.66,12.25,9.61
			c1.84-0.02,2.41-3.08,0.45-3.35c-10.36-1.4-13.83-15.13-11.48-23.89C352.88,476.58,351.13,476.17,350.68,477.29L350.68,477.29z"/>
		<path id="XMLID_51_" class="st39" d="M351.26,477.21c-1.41,3.14,2.85,4.82,5.31,5.07c2.79,0.29,8.29-0.59,8.65-4.04
			c0.07-0.64-0.59-1.16-1.17-1.17c-1.81-0.04-3.35,1.67-5.2,2.02c-1.58,0.31-5.88,0.34-6.33-1.72
			C352.4,476.83,351.51,476.67,351.26,477.21L351.26,477.21z"/>
		<path id="XMLID_50_" class="st39" d="M351.61,480.42c-1.1,3.08-0.74,6.19,0.96,8.98c0.61,1,1.92,0.68,2.31-0.3
			c0.99-2.51,0.62-5.06,0.14-7.65c-0.28-1.51-2.61-1.12-2.62,0.35c-0.03,4.27,0.05,8.49,1.15,12.64c0.43,1.63,2.86,1.26,2.9-0.39
			c0.07-2.92-0.35-5.72-1.23-8.5c-0.4-1.26-2.53-1.5-2.8,0c-0.71,4.07-0.59,10.1,3.42,12.51c0.82,0.49,1.93,0.03,2.17-0.88
			c0.7-2.58-0.17-4.78-1.34-7.09c-0.81-1.59-3.05-0.43-2.74,1.15c0.47,2.35,1.41,4.37,2.9,6.24c1.04,1.31,3.32-0.43,2.34-1.81
			c-1.16-1.64-1.94-3.25-2.35-5.24c-0.91,0.38-1.83,0.77-2.74,1.15c0.8,1.56,1.55,3,1.08,4.79c0.72-0.29,1.45-0.59,2.17-0.88
			c-2.7-1.6-2.59-6.53-2.11-9.18c-0.93,0-1.86,0-2.8,0c0.79,2.56,1.12,5.05,1.08,7.73c0.97-0.13,1.93-0.26,2.9-0.39
			c-1.13-3.88-1.26-7.84-1.33-11.85c-0.87,0.12-1.75,0.24-2.62,0.35c0.44,2.16,0.73,4.13,0,6.27c0.77-0.1,1.54-0.2,2.31-0.3
			c-1.52-2.24-1.88-4.54-1.08-7.13C354.08,479.65,352.07,479.13,351.61,480.42L351.61,480.42z"/>
		<path id="XMLID_45_" class="st39" d="M368.38,468.31c-4.25,3.81-10.2,9.78-16.28,5.95c-0.66-0.41-1.85-0.21-2.18,0.57
			c-2.7,6.39-2.21,16.91,4.67,20.7c0.97,0.54,2.22-0.57,1.58-1.58c-1.68-2.63-3.52-4.8-4.3-7.91c-0.81-3.21-0.58-6.58,0.79-9.6
			c-0.73,0.19-1.45,0.38-2.18,0.57c7.52,5.01,15.21-1.51,19.12-7.74C370.11,468.48,369.03,467.74,368.38,468.31L368.38,468.31z"/>
		<path id="XMLID_43_" class="st39" d="M353.39,477.73c0.98,1.66,4.18,1.76,5.9,1.7c1.55-0.05,1.77-2.14,0.36-2.64
			c-1.56-0.55-3.23-0.78-4.89-0.81c-1.11-0.02-1.77,1.23-1.24,2.16c0.9,1.59,2.39,2.71,4.19,3.08c0.13-0.98,0.27-1.96,0.4-2.95
			c-1.53-0.02-3.07-0.03-4.6-0.05c-1.99-0.02-1.99,3.07,0,3.09c1.05,0.01,2.11,0.02,3.16,0.04c0.98,0.01,1.82,0.07,2.57-0.66
			c0.53-0.53,0.55-1.27,0.25-1.91c-0.02-0.05-0.04-0.09-0.06-0.14c-0.67-1.42-2.88-0.67-2.87,0.78c0,0.05,0,0.1,0,0.15
			c0.26-0.45,0.52-0.91,0.78-1.36c-0.18,0.13-1.45-0.01-1.71-0.01c-0.7,0.01-1.41,0.01-2.11,0.02c0,1.03,0,2.06,0,3.09
			c1.53-0.01,3.07-0.03,4.6-0.04c1.63-0.02,2.11-2.63,0.4-2.95c-1.08-0.2-1.92-0.69-2.5-1.63c-0.41,0.72-0.83,1.44-1.24,2.16
			c1.44-0.02,2.78,0.18,4.17,0.53c0-0.86,0-1.73,0-2.59c-0.9,0.13-1.82,0.13-2.72,0.02c-0.81-0.1-1.57-0.44-2.37-0.19
			C353.38,476.77,353.13,477.31,353.39,477.73L353.39,477.73z"/>
		<path id="XMLID_219_" class="st40" d="M409.17,795.54c-0.01-0.03-0.02-0.07-0.02-0.1c0.06-6-6.05-9.61-10.5-12.78
			c-6.3-4.49-13.25-10.45-20.97-12.19c-2.68-0.61-5.69-0.41-7.9,1.39c-2.3,1.88-2.71,4.7-2.66,7.51c0.03,1.77,0.3,3.74-0.25,5.46
			c-0.64,1.99-2.42,3-4.05,4.11c-2.41,1.64-4.43,3.58-4.5,6.65c-0.02,0.75,0.64,1.35,1.37,1.37l49.3-0.04
			c0.01-0.08,0.09-0.36,0.1-0.44C409.19,796.2,409.23,795.87,409.17,795.54z"/>
		<path id="XMLID_41_" class="st40" d="M589.06,778.6c0.35-2.17-0.23-4.35-1.54-6.11c-1.12-1.49-2.64-2.43-4.4-2.99
			c-1-0.32-2.05-0.46-3.05-0.78c-1.96-0.62-2.68-1.85-3.78-3.42c-3.33-4.71-9.32-3.23-14.29-2.7c-5.6,0.6-11.16,1.44-16.68,2.49
			c1.01-3.46-1.9-7.36-6.14-6.32c-3.39,0.83-5.81,3.91-8.77,5.59c-3.06,1.73-6.82,1.77-9.65,3.96c-0.76,0.59-1.32,1.26-1.78,2.05
			c-1.28,1.42-2.42,2.96-4.06,4.07c-0.34,0.23-0.68,0.44-1.03,0.65c-0.01,0-0.02,0.01-0.03,0.01c-3.45,1.44-6.83,3.04-10.08,4.87
			c-2.97,1.68-4.74,3.38-6.31,6.41c-1.8,3.49-3.4,7.08-4.85,10.72c0,0,32.21-0.4,38.51-0.28c6.15,0.12,51.06,0.08,51.06,0.08
			c1.43-0.53,3.28-2.04,3.96-3.52c1.04-2.26-0.21-4.88,0.1-7.26C586.55,783.87,588.69,780.96,589.06,778.6z"/>
		
			<linearGradient id="XMLID_00000161608635701416829590000016862525575918867593_" gradientUnits="userSpaceOnUse" x1="405.9543" y1="597.0327" x2="473.6194" y2="597.0327">
			<stop  offset="0" style="stop-color:#F7E2BB"/>
			<stop  offset="1" style="stop-color:#D2B795"/>
		</linearGradient>
		
			<path id="XMLID_291_" style="fill-rule:evenodd;clip-rule:evenodd;fill:url(#XMLID_00000161608635701416829590000016862525575918867593_);" d="
			M405.95,610.36c1.1,1.1,11.51,10.68,11.51,10.68s5.21,6.57,21.92,1.64c13.67-4.03,25.36-13.44,29.31-23.56
			c3.94-10.07,4.93-29.59,4.93-29.59s-9.04,28.76-13.15,33.15c-4.11,4.38-23.01,7.94-23.01,7.94l-21.92,3.56L405.95,610.36z"/>
		<g id="XMLID_299_">
			
				<linearGradient id="SVGID_00000108294301486340976460000007441591829487320216_" gradientUnits="userSpaceOnUse" x1="437.8738" y1="667.2006" x2="474.1534" y2="667.2006">
				<stop  offset="0" style="stop-color:#F7E2BB"/>
				<stop  offset="1" style="stop-color:#D2B795"/>
			</linearGradient>
			<path style="fill:url(#SVGID_00000108294301486340976460000007441591829487320216_);" d="M474.15,619.94
				c-3.34,11.43-12.82,20.86-24.26,24.15c-3.03,0.87-6.27,1.38-8.84,3.2c-2.58,1.82-4.19,5.56-2.45,8.19
				c0.73,1.1,1.9,1.82,2.94,2.63c4.4,3.47,6.64,9.47,5.6,14.97c-0.54,2.85-1.87,5.48-2.94,8.17c-3.89,9.81-3.4,23.13-0.29,33.21
				c2.91-1.52,5.73-6.83,6.99-9.86c1.93-4.68,3.44-8.45,5.62-13.01c2.25-4.71,3.3-12.22,3.97-17.4c1.14-8.69,0.63-15.86,2.38-24.44
				c1.76-8.59,4.69-17.09,9.95-24.11"/>
		</g>
		<g id="XMLID_34_">
			
				<linearGradient id="XMLID_00000087380093513835479030000009179647580880929196_" gradientUnits="userSpaceOnUse" x1="387.0981" y1="652.4893" x2="398.7374" y2="652.4893">
				<stop  offset="0" style="stop-color:#92C9C2"/>
				<stop  offset="1" style="stop-color:#658781"/>
			</linearGradient>
			<path id="XMLID_40_" style="fill:url(#XMLID_00000087380093513835479030000009179647580880929196_);" d="M395.71,655.16
				c-2.37-4.03-0.51-8.68-2.39-12.77c-1.41-3.08-4.98-1.67-5.96,0.95c-1.35,3.58,0.86,6.89,3.07,9.52c2.36,2.8,5.62,6.27,6.87,10.05
				c0.68,0.36,1.3,0.84,1.86,1.43c0.06-3.03-1.49-6.1-3.34-8.91C395.8,655.35,395.76,655.25,395.71,655.16z"/>
			
				<linearGradient id="XMLID_00000132070661485065248520000004151065913676723103_" gradientUnits="userSpaceOnUse" x1="468.6706" y1="651.6639" x2="477.2566" y2="651.6639">
				<stop  offset="0" style="stop-color:#92C9C2"/>
				<stop  offset="1" style="stop-color:#658781"/>
			</linearGradient>
			<path id="XMLID_39_" style="fill:url(#XMLID_00000132070661485065248520000004151065913676723103_);" d="M476,653.17
				c0.49-1.69,1.11-3.35,1.43-5.11c0.63-3.38-0.75-10.07-5.5-9.73c-5.03,0.37-3.23,8.78-2.2,11.58c1.05,2.86,2.29,5.57,3.07,8.54
				c0.56,2.16,0.87,4.55,1.93,6.55c0.22-0.54,0.48-1.05,0.8-1.54c0.18-0.47,0.39-0.93,0.63-1.38c-0.29-1.39-0.55-2.78-0.83-4.17
				c-0.01-0.23-0.02-0.47-0.02-0.7c0.02-1.33,0.28-2.58,0.63-3.82C475.96,653.34,475.98,653.26,476,653.17z"/>
			
				<linearGradient id="XMLID_00000054952909456294039050000011960829261524398727_" gradientUnits="userSpaceOnUse" x1="403.8085" y1="706.3796" x2="467.6033" y2="706.3796">
				<stop  offset="0" style="stop-color:#92C9C2"/>
				<stop  offset="1" style="stop-color:#658781"/>
			</linearGradient>
			<path id="XMLID_36_" style="fill:url(#XMLID_00000054952909456294039050000011960829261524398727_);" d="M468.96,630.69
				c-7.31,14.26-7,30.9-9.85,46.36c-1.43,7.76-3.42,15.51-6.8,22.66c-1.62,3.44-3.62,6.6-5.82,9.69c-0.89,1.24-1.61,2.45-2.17,3.7
				c-0.91-4.05-2.3-8.04-3.79-11.81c-2.33-5.87-3.85-12.04-6.36-17.83c-2.44-5.62-5.68-10.83-8.89-16.03
				c-1.71-2.77-3.56-5.52-5.31-8.32c-0.04-0.27-0.07-0.55-0.09-0.83c-0.07-0.8-0.65-1.27-1.27-1.39c-0.52-0.88-1.03-1.76-1.52-2.65
				c-0.84-2.31-2.14-4.44-4.08-6.26c-0.59-0.55-1.37,0.27-0.87,0.87c6.08,7.3,3.17,17.78,2.15,26.26c-0.56,4.69-0.7,9.57,1.05,14.05
				c1.35,3.47,3.76,6.33,6.48,8.82c2.94,2.7,6.23,5.01,9.07,7.83c3.52,3.49,5.98,7.83,7.05,12.69c0.79,3.57,0.22,7.73,0.11,11.72
				c-0.31-0.88-0.59-1.77-0.88-2.65c-1.38-4.25-2.82-8.53-5.42-12.21c-2.58-3.64-5.91-6.4-9.31-9.25c-4.14-3.48-5.98-5.61-9.21-9.51
				c-3.15-3.79-6.54-9.25-8.49-13.77c-0.26-0.61-1.91-0.97-1.71-0.34l0.41,1.71c2.77,8.81,6.93,15.49,14.14,21.21
				c1.79,1.43,3.67,2.78,5.49,4.21c0.01,0.13,0.07,0.25,0.2,0.36c4.86,4.08,5.95,10.41,6.15,16.43c0.12,3.51,0.04,7.02,0.55,10.5
				c0.52,3.52,1.99,6.71,2.78,10.15c0.84,3.7,0.31,7.53,0.51,11.29c0.18,3.38,0.52,6.75,1.12,10.08c0.31,1.75,0.66,3.53,1.1,5.29
				c0,1.48,0.38,3.04,0.98,4.15c0.17,0.32,0.38,0.63,0.62,0.92c0.84,2.08,2.38,3.74,4.78,3.51c0.17-0.02,0.34-0.06,0.49-0.12
				c0.01,0.05,0.02,0.11,0.02,0.16c0.13-0.03,0.27-0.06,0.39-0.1c0.47-0.14,0.91-0.34,1.34-0.52c-0.77-5.27-1.57-10.53-2.33-15.8
				c-0.49-3.46-0.61-6.27,1.2-9.39c0.99-1.71,2.11-3.27,2.78-5.14c0.95-2.61,1.1-5.21,0.4-7.65c-0.24-4.03-0.46-8.08-0.63-12.11
				c-0.12-2.83-0.17-5.67-0.17-8.5c0-2.97-0.29-6.17,0.97-8.94c1.87-4.12,5.1-7.65,7.16-11.73c2.07-4.11,3.7-8.43,4.99-12.84
				c5.59-19.11,4.21-39.88,11.48-58.51C470.17,630.53,469.24,630.14,468.96,630.69z M431.38,718.77c-0.03-0.1-0.05-0.2-0.08-0.3
				c0.19,0.32,0.37,0.64,0.55,0.96C431.71,719.22,431.55,718.99,431.38,718.77z M432.83,692.26c0.27,0.7,0.54,1.4,0.8,2.1
				c-0.22-0.54-0.44-1.08-0.66-1.61C432.93,692.58,432.88,692.42,432.83,692.26z"/>
		</g>
		<g id="XMLID_33_">
			
				<linearGradient id="SVGID_00000129170133126761844580000016327383919273387414_" gradientUnits="userSpaceOnUse" x1="168.4417" y1="529.2893" x2="237.3349" y2="529.2893">
				<stop  offset="0" style="stop-color:#F7E2BB"/>
				<stop  offset="1" style="stop-color:#D2B795"/>
			</linearGradient>
			<path style="fill:url(#SVGID_00000129170133126761844580000016327383919273387414_);" d="M168.44,547.63
				c1.84-5.75,2.77-8.55,6.43-13.35c3.6-4.73,8.65-8.12,13.63-11.36c10.99-7.16,22.55-14.24,35.53-16.17
				c3.69-0.55,7.62-0.63,10.99,0.96c0,0,1.37,2.16,1.91,7.46c0.27,2.61,1.06,6.13-0.75,8.03c-2.84,2.98-5.7,5.98-9,8.47
				c-2.57,1.93-5.37,3.53-8.21,5.04c-16.09,8.54-31.59,15.69-49.8,15.49L168.44,547.63z"/>
		</g>
		<g id="XMLID_32_">
			<path id="XMLID_44_" class="st39" d="M243.91,494.37c-0.13-1.58-1.93-3.17-3.04-4.15c-1.33-1.18-2.95-2.03-4.5-0.67
				c-0.05,0.04-0.09,0.09-0.13,0.14c-0.78,0.34-1.19,1.43-0.47,2.23c0.45,0.5,0.93,0.97,1.42,1.42c-0.57,1.06-0.95,2.39-0.94,3.6
				c-0.13,0.2-0.26,0.39-0.4,0.58c-3.29-1.29-4.74,4.29-1.31,4.08c1.15-0.07,2.14-0.97,2.94-1.91c2,1.36,4.55-1.13,4.66-3.31
				c0.2,0,0.4-0.03,0.61-0.11C243.55,495.96,243.98,495.2,243.91,494.37z"/>
			<path id="XMLID_87_" class="st39" d="M148.21,521.84c1.88-8.27,5.33-16.45,10.89-22.93c2.73-3.17,5.96-5.74,9.46-7.99
				c0.17-0.03,0.34-0.1,0.51-0.21c3.39-2.26,6.96-4.21,10.68-5.81c-0.01,0.01-0.02,0.02-0.03,0.04c-1.02,1.29,0.23,3.33,1.86,2.41
				c3.6-2.05,6.57-3.83,10.83-4.12c4.01-0.27,8.09-0.05,12.11-0.03c4.07,0.02,8.07,0.01,12.04,1c2.77,0.69,5.44,1.73,8.13,2.71
				c0.24,0.29,0.47,0.6,0.7,0.91c0.63,0.89,1.78,0.69,2.32,0.07c0.73-0.05,1-1.15,0.33-1.61c-0.26-0.18-0.53-0.35-0.79-0.53
				c-6.59-8.5-18.21-9.47-28.25-8.54c-5.78,0.53-11.44,1.82-16.86,3.8c-0.15-0.01-0.31,0-0.49,0.06c-4.76,1.45-9.1,4.16-13.31,6.76
				c-4.14,2.54-7.99,5.45-11.17,9.14c-5.88,6.83-9.61,15.4-11.6,24.14c-3.56,15.67-0.62,32.09,7.72,45.62
				c0.01-0.03,0.02-0.06,0.04-0.09c0.15-0.3,0.42-0.54,0.73-0.71c0.15-0.45,0.29-0.91,0.41-1.37c0.06-0.26,0.16-0.47,0.27-0.66
				C147.44,551.31,144.97,536.15,148.21,521.84z"/>
			<path id="XMLID_105_" class="st39" d="M233.16,505c0.13-0.9-0.58-1.51-1.3-1.6c0.18-0.48,0.35-0.97,0.52-1.46
				c0.23-0.7-0.27-1.51-0.96-1.68c-1.78-0.46-2.85,0.67-3.68,2.04c-0.52-0.9-1.9-1.2-2.72-0.05c-0.93,1.31-1.76,2.69-2.55,4.1
				c-0.16-0.18-0.36-0.33-0.58-0.41c0.25-0.52,0.05-1.05-0.33-1.4c0.18-0.28,0.36-0.55,0.54-0.83c0.84-1.31-1.09-2.8-2.15-1.66
				c-0.58,0.62-1.14,1.24-1.71,1.87c0.27-1.54-2.03-2.63-3.04-1.06c-1.09,1.67-2.35,3.2-3.72,4.63c-0.29-0.64-1.04-1.07-1.89-0.66
				c-1.11,0.53-2.17,1.13-3.22,1.77c-0.01-0.96-0.93-1.86-1.98-1.19c-1.63,1.06-3.26,2.13-4.88,3.2c0.66-0.57,1.32-1.14,1.98-1.71
				c1.25-1.08-0.34-2.77-1.66-2.15c-3.22,1.51-6.29,3.28-9.26,5.2c0.36-1.04-0.93-2.42-2.01-1.65c-0.88,0.64-1.73,1.31-2.55,2
				c0.18-0.31,0.36-0.62,0.53-0.93c0.31-0.29,0.63-0.58,0.94-0.88c0.52-0.49,0.53-1.06,0.27-1.52c0.08-0.18,0.17-0.35,0.25-0.52
				c0.49-1.13-0.61-2.72-1.87-1.87c-5.95,3.97-11.13,8.84-16.09,13.93c-1.48,0.26-2.87,2.29-3.71,3.19
				c-3.39,3.66-6.32,7.71-8.8,12.03c-0.75,1.3,1.17,2.92,2.15,1.66c0.11-0.14,0.21-0.28,0.32-0.41c-0.12,0.41-0.05,0.86,0.22,1.2
				c-0.12,0.16-0.24,0.33-0.36,0.49c-0.33-0.02-0.65-0.05-0.98-0.07c-1.86-0.13-2.12,2.31-0.81,3.13c-0.28,0.58-0.52,1.18-0.74,1.8
				c-0.83,0.03-1.66,0.03-2.49-0.03c-1.76-0.11-1.75,2.63,0,2.74c0.26,0.02,0.51,0.02,0.77,0.03c-0.42,0.63-0.2,1.59,0.44,1.99
				c0.2,0.42,0.57,0.77,1.14,0.84c1.31,0.16,2.6,0.19,3.85,0.09c5.75,0.83,11.64-1.39,16.94-3.64c4.44-1.89,8.76-4.03,12.95-6.43
				c0.96-0.34,1.93-0.68,2.89-1.04c1.35-0.5,2.68-1.02,4.01-1.56c-2.64,1.53-5.33,2.99-7.98,4.53c-5.6,3.26-11.12,6.77-17.48,8.34
				c-0.77,0.19-0.64,1.53,0.19,1.43c6.02-0.76,14.73-3.77,20.14-6.35c23.83-11.37,39.49-26,43.69-34.11
				C236.82,509.52,233.83,505.3,233.16,505z"/>
		</g>
		
			<linearGradient id="XMLID_00000066486057710345398590000015073445347713038255_" gradientUnits="userSpaceOnUse" x1="468.9624" y1="534.6017" x2="481.0182" y2="534.6017">
			<stop  offset="0" style="stop-color:#F7E2BB"/>
			<stop  offset="1" style="stop-color:#D2B795"/>
		</linearGradient>
		<path id="XMLID_31_" style="fill:url(#XMLID_00000066486057710345398590000015073445347713038255_);" d="M468.96,526.62
			l1.64,21.14c0,0,6.57,1.51,7.12-1.78c0.55-3.29-1.1-4.25,0.14-7.94c1.23-3.7,5.34-8.22,1.64-13.29S469.24,519.5,468.96,526.62z"/>
		
			<linearGradient id="XMLID_00000090260224372861631670000004148351195376895907_" gradientUnits="userSpaceOnUse" x1="367.8725" y1="508.1164" x2="468.203" y2="508.1164">
			<stop  offset="0" style="stop-color:#F7E2BB"/>
			<stop  offset="1" style="stop-color:#D2B795"/>
		</linearGradient>
		<path id="XMLID_46_" style="fill:url(#XMLID_00000090260224372861631670000004148351195376895907_);" d="M369.66,497.22
			c0,0-1.6,8.71-1.78,12.46c-0.41,8.63,38.9-11.37,62.73-3.7c23.83,7.67,19.51,26.14,36.57,28.35c7.4,0.96-27.81-52.46-27.81-52.46
			l-64.1,12.33L369.66,497.22z"/>
		<path id="XMLID_49_" class="st39" d="M475.59,507.9c-0.01-1.56-1.28-2.73-2.8-2.8c-2.23-0.1-3.45,1.15-5.07,2.54
			c0,0-0.01,0-0.01,0.01c0.45-1.49,0.26-3.24-0.76-4.46c-0.52-0.62-0.98-1.25-1.41-1.89c-0.35-3.24-2.06-6.65-3.78-9.19
			c-0.46-0.68-1.03-1.17-1.65-1.47c0.05-1.3,0.05-2.59,0.02-3.89c0.4-0.37,0.65-0.89,0.69-1.56c0.01-0.12,0.01-0.24,0.02-0.36
			c0.03-0.52-0.13-0.98-0.39-1.37c-0.11-0.93-0.55-1.86-1.42-2.7c-0.82-0.79-1.64-1.58-2.47-2.36c0.03-0.18,0.06-0.37,0.09-0.55
			c0.21-1.49-1.64-2.87-2.72-1.99c-0.5-0.48-1-0.96-1.5-1.45c-0.49-0.52-0.99-1.02-1.51-1.5c-1.85-1.68-4.07-1.57-5.74-0.56
			c-0.35-0.93-1.02-1.75-2.08-2.26c-1.5-0.73-2.99-1.46-4.49-2.18c-2.32-1.13-4.84-0.24-6.26,1.42c-0.49,0-0.98,0.01-1.47,0.02
			c-0.74-0.97-1.93-1.65-3.59-1.68c-6.54-0.14-13.32-0.23-19.77,1.18c0-0.23-0.01-0.46-0.05-0.7c-0.31-2.08-2.27-4.36-4.62-4.08
			c-12.4,1.5-24.78,3.74-36.07,9.3c-4.62,2.28-11.86,5.72-13.37,11.1c-0.93,3.31,0.72,6.57,1.7,9.68c1.09,3.46,2.01,6.98,2.96,10.48
			c0.84,3.09,4.86,2.37,5.48-0.35c0.38-0.07,0.87-0.04,1.1-0.36c12.55-17.92,47.75-9.57,65.56-17.51c2.14-0.95,4.81-0.84,8.13,1.16
			c3.15,1.89,7.03,4.87,8.97,7.49c1.76,5.64,3.71,11.21,5.31,16.9c0.66,2.34,1.2,4.87,3.21,6.45c1.34,1.06,2.93,1.58,4.52,2.13
			c1.69,4.76,3.84,9.36,6.45,13.66c0.24,0.4,0.73,0.47,1.1,0.32c0.24-0.02,0.46-0.16,0.56-0.41c0.06-0.09,0.11-0.19,0.12-0.31
			c0.32-3.84,0.25-7.73,0.06-11.58c-0.22-4.71,3.43-7.63,5.16-7.35c0.84,0.13,0.45-2.4,0.05-2.99
			C474.86,510.77,475.6,509.52,475.59,507.9z M362.17,489.63c-0.31-0.83-0.62-1.73-0.56-2.41c0.12-1.33,2.86-2.7,4.36-3.52
			C364.6,485.6,363.34,487.58,362.17,489.63z"/>
	</g>
</g>
</svg>
