<?xml version="1.0" encoding="utf-8"?>
<!-- Generator: Adobe Illustrator 26.0.1, SVG Export Plug-In . SVG Version: 6.00 Build 0)  -->
<svg version="1.1" id="Layer_1" xmlns="http://www.w3.org/2000/svg" xmlns:xlink="http://www.w3.org/1999/xlink" x="0px" y="0px"
	 viewBox="0 0 612 792" style="enable-background:new 0 0 612 792;" xml:space="preserve">
<style type="text/css">W
	.st0{fill:rgba(58, 17, 17, 0.921);}
	svg {
    background: transparent;
}
</style>
<g id="XMLID_125_">
	<path class="st0" d="M533.86,308.93c-3.69-0.11-10.29,0.87-13.61,2.3c-9.46,4.08-7.43,16.73-1.42,24.33
		c6.02,7.59,14.89,14.53,15.18,23.78c0.52,16.74-25.17,22.72-44.2,21.49c-43.96-2.83-86.84-14.81-130.91-15.63
		s-105.96,12.93-126.52,47.16c-9.03,15.02-10.55,32.94-6.1,49.47c7.12,26.49,20.98,46.91,14.24,73.48
		c-10.17,40.05-59.91,53.89-80.01,60.13c-37.5,11.63-69.44,33.99-98.02,58.28C29.99,681.31-0.87,715.84,0.02,755.53
		C0.3,768.27,8.9,780.84,14.72,792H612c0-40.71,0-333.8,0-371.75c0-31.66,0-93.98,0-93.22C612,327.02,592.82,310.69,533.86,308.93z"
		/>
</g>
</svg>
